<?xml version="1.0" encoding="utf-8"?>
<!-- Generator: Adobe Illustrator 19.0.0, SVG Export Plug-In . SVG Version: 6.00 Build 0)  -->
<svg version="1.1" id="Layer_1" xmlns="http://www.w3.org/2000/svg" xmlns:xlink="http://www.w3.org/1999/xlink" x="0px" y="0px"
	 viewBox="0 0 416.7 63.7" style="enable-background:new 0 0 416.7 63.7;" xml:space="preserve">
<style type="text/css">
	.st0{fill:none;}
	.st1{fill:#FFFFFF;}
	.st2{fill:#F8951D;}
</style>
<g id="XMLID_11_">
	<path id="XMLID_13_" d="M261.6,13.7l-4.2,0.5L247,58.7h-9.5l-9.4-33.8h-0.2l-9.4,33.8H209l-10.4-44.5l-4.2-0.5V7.5h18.8v6.2
		l-4.7,0.8l5.9,28.1l0.2,0l9.6-35.1h7.6l9.7,35.1l0.2,0l5.8-28.1l-4.7-0.8V7.5h18.8V13.7z"/>
	<path id="XMLID_15_" d="M264.3,52.6l5-1.1V11.1l-5.5-1.1V3.9h15.7v21.7c1.2-1.8,2.7-3.1,4.4-4.1c1.7-1,3.7-1.5,5.8-1.5
		c4,0,7.1,1.3,9.4,4s3.4,6.7,3.4,12.2v15.4l4.9,1.1v6.2h-19.6v-6.2l4.4-1.1V36.1c0-3-0.5-5-1.6-6.3S288,28,285.9,28
		c-1.4,0-2.7,0.3-3.7,0.8c-1.1,0.5-2,1.2-2.7,2.2v20.6l4.4,1.1v6.2h-19.6V52.6z"/>
	<path id="XMLID_17_" d="M328.5,59.5c-5.5,0-9.9-1.8-13.1-5.3s-4.9-8-4.9-13.4v-1.4c0-5.6,1.6-10.3,4.7-14s7.3-5.5,12.5-5.4
		c5.1,0,9.1,1.5,12,4.6s4.3,7.3,4.3,12.6v5.6h-22.7L321,43c0.2,2.5,1,4.6,2.5,6.2s3.5,2.4,6.1,2.4c2.3,0,4.2-0.2,5.7-0.7
		s3.1-1.2,4.9-2.2l2.8,6.3c-1.6,1.2-3.6,2.3-6.1,3.1S331.6,59.5,328.5,59.5z M327.6,27.9c-1.9,0-3.4,0.7-4.5,2.2
		c-1.1,1.5-1.8,3.4-2,5.7l0.1,0.2h12.6v-0.9c0-2.2-0.5-3.9-1.5-5.2S329.6,27.9,327.6,27.9z"/>
	<path id="XMLID_21_" d="M349.4,52.6l4.9-1.1V27.9l-5.4-1.1v-6.2h15l0.5,5.6c0.9-2,2-3.5,3.4-4.6c1.4-1.1,3-1.7,4.9-1.7
		c0.5,0,1.1,0,1.7,0.1c0.6,0.1,1.1,0.2,1.5,0.3l-1.1,9.4l-4.2-0.1c-1.5,0-2.7,0.3-3.7,0.9c-1,0.6-1.7,1.4-2.3,2.5v18.5l4.9,1.1v6.2
		h-20.1V52.6z"/>
	<path id="XMLID_28_" d="M396.5,59.5c-5.5,0-9.9-1.8-13.1-5.3s-4.9-8-4.9-13.4v-1.4c0-5.6,1.6-10.3,4.7-14s7.3-5.5,12.5-5.4
		c5.1,0,9.1,1.5,12,4.6s4.3,7.3,4.3,12.6v5.6h-22.7L389,43c0.2,2.5,1,4.6,2.5,6.2s3.5,2.4,6.1,2.4c2.3,0,4.2-0.2,5.7-0.7
		s3.1-1.2,4.9-2.2l2.8,6.3c-1.6,1.2-3.6,2.3-6.1,3.1S399.6,59.5,396.5,59.5z M395.6,27.9c-1.9,0-3.4,0.7-4.5,2.2
		c-1.1,1.5-1.8,3.4-2,5.7l0.1,0.2h12.6v-0.9c0-2.2-0.5-3.9-1.5-5.2S397.6,27.9,395.6,27.9z"/>
</g>
<g id="XMLID_1_">
	<path id="XMLID_18_" class="st0" d="M44.5,54.4l0.2-0.1v-0.5c-0.2,0-0.4,0.1-0.5,0.1L44.5,54.4z"/>
	<path id="XMLID_30_" d="M11.6,10.4l0.2-0.1l24.2,35.2c0.7-0.2,1.3-0.3,2-0.5L11.6,6.8H9.7v45c0.6-0.2,1.3-0.3,1.9-0.5V10.4z"/>
	<path id="XMLID_31_" d="M46.6,6.8h-1.9v36.7c0.6-0.2,1.3-0.3,1.9-0.5V6.8z"/>
	<path id="XMLID_32_" d="M44.7,54.3l-0.2,0.1l-0.3-0.5c-0.7,0.2-1.3,0.3-2,0.5l2.5,3.6h1.9v-4.7c-0.6,0.2-1.3,0.3-1.9,0.5V54.3z"/>
	<path id="XMLID_33_" d="M58.5,39.7v-1.5c0-4.7,1.3-8.7,4-12c2.7-3.4,6.2-5,10.7-5c4.5,0,8,1.7,10.7,5c1.7,2.1,2.9,4.5,3.5,7.1
		c0.6-0.2,1.3-0.3,1.9-0.5c-0.7-3.2-2-6-4.1-8.3c-3.1-3.5-7.1-5.3-12-5.3c-4.9,0-8.9,1.8-12,5.3c-3.1,3.5-4.6,8.1-4.6,13.7v1.5
		c0,0.3,0,0.6,0,0.9c0.6-0.1,1.3-0.3,1.9-0.4C58.6,40,58.5,39.9,58.5,39.7z"/>
	<path id="XMLID_34_" d="M84,51.8c-2.7,3.3-6.2,5-10.7,5c-4.5,0-8.1-1.7-10.8-5c-0.5-0.6-1-1.3-1.4-2c-0.7,0.2-1.4,0.3-2,0.5
		c0.6,1.1,1.3,2.1,2.2,3.1c3.1,3.5,7.1,5.3,12.1,5.3c4.9,0,8.9-1.8,12-5.3c2.4-2.8,3.9-6.3,4.4-10.3c-0.7,0.2-1.3,0.3-2,0.5
		C87.2,46.7,86,49.4,84,51.8z"/>
	<path id="XMLID_35_" d="M135,54.3l-0.2,0.1l-13-18.9c-0.6,0.2-1.3,0.3-1.9,0.5L135,58h1.9V31.9c-0.6,0.2-1.3,0.3-1.9,0.5V54.3z"/>
	<path id="XMLID_36_" d="M136.9,6.8H135V22c0.6-0.2,1.3-0.3,1.9-0.5V6.8z"/>
	<path id="XMLID_37_" d="M100,58h1.9V40.2c-0.6,0.2-1.3,0.3-1.9,0.5V58z"/>
	<path id="XMLID_38_" d="M102,10.4l0.2-0.1l11.6,16.8c0.6-0.2,1.3-0.3,1.9-0.5L102,6.8H100v23.6c0.6-0.2,1.3-0.3,1.9-0.5V10.4z"/>
	<path id="XMLID_39_" d="M174.4,26.2c2.7,3.4,4,7.4,4,12v1.5c0,4.8-1.3,8.8-4,12.1c-2.7,3.3-6.2,5-10.7,5c-4.5,0-8.1-1.7-10.8-5
		c-2.7-3.3-4-7.4-4-12.1v-1.5c0-3.7,0.8-6.9,2.5-9.8c-0.9,0.2-1.7,0.4-2.6,0.6c-1.2,2.7-1.8,5.7-1.8,9.2v1.5
		c0,5.6,1.5,10.2,4.6,13.7c3.1,3.5,7.1,5.3,12.1,5.3c4.9,0,8.9-1.8,12-5.3c3.1-3.5,4.6-8.1,4.6-13.7v-1.5c0-5.6-1.5-10.1-4.6-13.7
		c-0.5-0.6-1-1-1.5-1.5c-0.8,0.2-1.7,0.4-2.5,0.6C172.6,24.3,173.5,25.2,174.4,26.2z"/>
	<path id="XMLID_9_" class="st1" d="M44.1,53.9c0.2,0,0.4-0.1,0.5-0.1"/>
	<path id="XMLID_7_" class="st1" d="M46.6,43c-0.6,0.2-1.3,0.3-1.9,0.5"/>
	<path id="XMLID_6_" class="st1" d="M44.7,53.7c0.6-0.2,1.3-0.3,1.9-0.5"/>
	<path id="XMLID_5_" class="st1" d="M42.2,54.3c0.7-0.2,1.3-0.3,2-0.5"/>
	<path id="XMLID_4_" class="st1" d="M38,45c-0.7,0.2-1.3,0.3-2,0.5"/>
	<path id="XMLID_10_" class="st1" d="M136.9,21.6c-0.6,0.2-1.3,0.3-1.9,0.5"/>
	<path id="XMLID_8_" class="st1" d="M135,32.3c0.6-0.2,1.3-0.3,1.9-0.5"/>
</g>
<g id="XMLID_3_">
	<g id="XMLID_22_">
		<path id="XMLID_26_" class="st2" d="M5.8,60.4c19.8-4.7,39.5-9.4,59.3-14.1c31.3-7.4,62.6-14.9,94-22.3c7.3-1.7,14.5-3.4,21.8-5.2
			c3.1-0.7,1.8-5.6-1.3-4.8c-19.8,4.7-39.5,9.4-59.3,14.1c-31.3,7.4-62.6,14.9-94,22.3c-7.3,1.7-14.5,3.4-21.8,5.2
			C1.4,56.3,2.7,61.1,5.8,60.4c19.8-4.7,39.5-9.4,59.3-14.1c31.3-7.4,62.6-14.9,94-22.3c7.3-1.7,14.5-3.4,21.8-5.2
			c3.1-0.7,1.8-5.6-1.3-4.8c-19.8,4.7-39.5,9.4-59.3,14.1c-31.3,7.4-62.6,14.9-94,22.3c-7.3,1.7-14.5,3.4-21.8,5.2
			C1.4,56.3,2.7,61.1,5.8,60.4z"/>
	</g>
</g>
</svg>
