<?xml version="1.0" encoding="utf-8"?>
<!-- Generator: Adobe Illustrator 19.1.0, SVG Export Plug-In . SVG Version: 6.00 Build 0)  -->
<!DOCTYPE svg PUBLIC "-//W3C//DTD SVG 1.1//EN" "http://www.w3.org/Graphics/SVG/1.1/DTD/svg11.dtd">
<svg version="1.1" id="Layer_1" xmlns="http://www.w3.org/2000/svg" xmlns:xlink="http://www.w3.org/1999/xlink" x="0px" y="0px"
	 viewBox="0 0 235 254" enable-background="new 0 0 235 254" xml:space="preserve">
<path id="XMLID_184_" fill="#FFFFFF" d="M197.4,227h-160c-11,0-20-9-20-20V47c0-11,9-20,20-20h160c11,0,20,9,20,20v160
	C217.4,218,208.4,227,197.4,227z"/>
<g id="XMLID_11_">
	<path id="XMLID_183_" fill="#2E73A1" d="M192.4,32h-73.1c1.2,0.4,2.4,0.9,3.6,1.6c2.7,1.6,4.5,3.5,4.7,6.6
		c0.4,4.9,2.9,9.8-0.5,14.6c-1.3,1.8,0.3,3.5,1.5,4.9c4.4,5,7.7,10.7,11.1,16.3c2.8,4.5,6.2,9,4.6,14.9c-0.1,0.5-0.1,1.1,0.2,1.5
		c6.1,7.8,1.1,16.7,2.6,25c0.2,1.2-0.1,2.9-0.8,3.9c-5,7-3.3,14.8-3.1,22.5c0.1,3.4,0.4,6.8,1,10.1c0.7,3.5,2.5,6.3,7,4.9
		c2.1-0.7,4.2-0.2,5.9,0.7c5,2.6,10.6,1.8,15.8,3c1.6,0.4,2.6-0.6,3.6-1.4c2.1-1.6,4.4-1.5,6.7-0.7c1.5,0.5,2.5,2,4.7,0.4
		c1.4-1.1,2.4,1.6,2.5,2.9c0.9,9.4,3.3,18.7,2.4,28.2c-0.2,1.7-0.8,3.3-1.7,4.7c-0.5,0.9-1.5,1.9-2.4,1.2
		c-3.9-3.1-9.6-3.1-11.1-10.4c-1.7-8.3-3.3-8.7-11.2-7.3c-6.8,1.2-13.6,2.5-21.6,4.2c18.8,15.2,36.6,29.4,61.9,25.6
		c1.3-0.2,2.7-0.2,4-0.1c1-2.4,1.5-4.9,1.5-7.6V52C212.4,41,203.4,32,192.4,32z"/>
	<g id="XMLID_180_">
		<path id="XMLID_182_" fill="#44A0D9" d="M61,85c-2.2,1.9-1.7,3.5-0.2,5.6c4.4,6.2,8.6,12.4,13.1,19.1c4.4-5.5,4.4-5.5,3.2-10.9
			c-0.1-0.5-0.3-1.2-0.1-1.4c4.4-4,1.5-7.4,0.7-12c-1.2-6.5-5.5-11.8-5.9-18.4c0-0.8-0.5-2-1.9-2c-1.1,0-2,0.5-2.4,1.5
			c-1.4,3.3-3.8,6.3-3.4,10.3C64.4,80,63.5,82.9,61,85z"/>
		<path id="XMLID_181_" fill="#44A0D9" d="M22.4,52v150c0,1.2,0.1,2.3,0.3,3.4c0.5-0.5,1.2-1,1.9-1.5c2.1-1.4,4.4-2.5,6.4-4
			c3.4-2.5,5.1-5.6,6.3-10.1c2.7-9.6,4.2-19.8,10.8-28c1.3-1.6,1.3-3.5,1.6-5.2c1-6.2,3.2-11.6,9.2-14.8c3.4-1.8,4-4.7,4.1-8.8
			c0.1-4.2,1.8-9.1,5.1-12.5c3.8-3.9,3.9-7.4,0.4-11.4c-2.3-2.7-4.6-5.5-6.2-8.6c-3-5.6-7.1-8.8-13.8-9.4c-6-0.6-7.9-6.7-9.6-11
			c-1.8-4.5-0.7-9.8,5-12.3c1.8-0.8,1.9-3.3,2.8-4.4c3.7-4.7,4.5-11.4,10.5-14.3c0.7-0.4,1.5-0.8,2-1.5c6.1-8.2,14.9-7.8,23.8-8
			c5.3-0.1,10.6-1.8,15.9,0.2c0.9,0.4,1.3-0.6,1.9-1.3c2.7-3.2,5.9-5.4,9.3-6.5H42.4C31.4,32,22.4,41,22.4,52z"/>
	</g>
	<path id="XMLID_179_" fill="#00AEEF" d="M92.2,144.3c0.2-0.1,0.4-0.2,0.6-0.4C92.5,144.1,92.4,144.2,92.2,144.3z"/>
	<path id="XMLID_178_" fill="#00AEEF" d="M92.7,144c0.5-0.3,0.9-0.7,1.4-0.9C93.7,143.3,93.2,143.7,92.7,144z"/>
	<path id="XMLID_177_" fill="#00AEEF" d="M84.4,148.2c1.2-0.9,2.5-1.7,3.9-2.4C86.9,146.5,85.6,147.3,84.4,148.2z"/>
	<path id="XMLID_176_" fill="#00AEEF" d="M91.3,144.7c0.3-0.1,0.6-0.2,0.9-0.4C91.9,144.5,91.6,144.7,91.3,144.7z"/>
	<path id="XMLID_175_" fill="#00AEEF" d="M56.7,190c0.8-1.2,1.5-2.4,2.2-3.7C58.2,187.6,57.5,188.8,56.7,190z"/>
	<path id="XMLID_174_" fill="#00AEEF" d="M103.8,164c0.4,0.2,0.8,0.5,1.2,0.7C104.7,164.5,104.3,164.2,103.8,164z"/>
	<path id="XMLID_173_" fill="#00AEEF" d="M118.2,169.8c0.2,0.1,0.3,0.3,0.5,0.5C118.6,170.1,118.4,170,118.2,169.8z"/>
	<path id="XMLID_172_" fill="#00AEEF" d="M165.7,204.1c3.3,2.1,6.7,4.1,10.1,6.1C172.4,208.3,169.1,206.2,165.7,204.1z"/>
	<path id="XMLID_171_" fill="#00AEEF" d="M117.6,169.5c-0.3-0.1-0.5-0.1-0.8,0.1c-0.7,0.4-1.3,0.7-1.8,0.8c0.6-0.2,1.2-0.4,1.8-0.8
		C117.1,169.4,117.4,169.4,117.6,169.5z"/>
	<path id="XMLID_170_" fill="#00AEEF" d="M155.8,197.7c3.3,2.2,6.6,4.3,9.9,6.4C162.4,202.1,159.1,199.9,155.8,197.7z"/>
	<path id="XMLID_169_" fill="#00AEEF" d="M117.8,169.6c0.1,0.1,0.3,0.2,0.4,0.3C118.1,169.7,118,169.6,117.8,169.6z"/>
	<path id="XMLID_168_" fill="#00AEEF" d="M110.7,169.5c0.3,0.2,0.7,0.4,1.1,0.6C111.4,170,111,169.8,110.7,169.5z"/>
	<path id="XMLID_167_" fill="#00AEEF" d="M114.1,170.6c-0.3,0-0.5,0-0.8,0C113.6,170.6,113.9,170.6,114.1,170.6z"/>
	<path id="XMLID_166_" fill="#00AEEF" d="M50.6,198.7c1.8-2.2,3.4-4.5,4.9-6.9C54,194.2,52.4,196.5,50.6,198.7z"/>
	<path id="XMLID_165_" fill="#00AEEF" d="M34.9,212.8c0.1-0.1,0.2-0.1,0.3-0.2C35.1,212.7,35,212.7,34.9,212.8z"/>
	<path id="XMLID_164_" fill="#00AEEF" d="M35.9,212.2c0.1-0.1,0.2-0.1,0.4-0.2C36.1,212.1,36,212.1,35.9,212.2z"/>
	<path id="XMLID_163_" fill="#00AEEF" d="M33.9,213.3c0.1,0,0.2-0.1,0.3-0.1C34.1,213.2,34,213.2,33.9,213.3z"/>
	<path id="XMLID_162_" fill="#00AEEF" d="M36.9,211.6c0.1-0.1,0.2-0.2,0.4-0.2C37.1,211.5,37,211.5,36.9,211.6z"/>
	<path id="XMLID_161_" fill="#00AEEF" d="M32.8,213.7c0.1,0,0.2-0.1,0.2-0.1C33,213.7,32.9,213.7,32.8,213.7z"/>
	<path id="XMLID_160_" fill="#00AEEF" d="M31.9,214.1C31.9,214.1,31.9,214.1,31.9,214.1C31.9,214.1,31.9,214.1,31.9,214.1z"/>
	<path id="XMLID_159_" fill="#00AEEF" d="M40.7,208.8c0.2-0.1,0.3-0.3,0.5-0.4C41,208.6,40.8,208.7,40.7,208.8z"/>
	<path id="XMLID_158_" fill="#00AEEF" d="M41.6,208.1c0.2-0.2,0.4-0.3,0.6-0.5C42,207.8,41.8,207.9,41.6,208.1z"/>
	<path id="XMLID_157_" fill="#00AEEF" d="M42.5,207.3c0.3-0.3,0.6-0.5,0.9-0.8C43.1,206.8,42.8,207,42.5,207.3z"/>
	<path id="XMLID_156_" fill="#00AEEF" d="M37.9,211c0.1-0.1,0.3-0.2,0.4-0.3C38.1,210.8,38,210.9,37.9,211z"/>
	<path id="XMLID_155_" fill="#00AEEF" d="M46.4,203.5c1-1,1.9-2.1,2.8-3.2C48.4,201.4,47.4,202.5,46.4,203.5z"/>
	<path id="XMLID_154_" fill="#00AEEF" d="M38.8,210.3c0.1-0.1,0.3-0.2,0.4-0.3C39.1,210.1,39,210.2,38.8,210.3z"/>
	<path id="XMLID_153_" fill="#00AEEF" d="M39.8,209.6c0.1-0.1,0.3-0.2,0.4-0.3C40,209.3,39.9,209.5,39.8,209.6z"/>
	<path id="XMLID_152_" fill="#00AEEF" d="M108.3,140.6c-0.3-0.3-0.6-0.6-0.9-0.8C107.7,140,108.1,140.3,108.3,140.6z"/>
	<path id="XMLID_151_" fill="#00AEEF" d="M99,139.5L99,139.5c1.5-0.2,2.8-0.4,3.8-0.4C101.7,139.2,100.5,139.3,99,139.5z"/>
	<path id="XMLID_141_" fill="#00AEEF" d="M106.9,148.2c-0.1-0.1-0.2-0.3-0.3-0.4C106.7,147.9,106.8,148,106.9,148.2z"/>
	<path id="XMLID_124_" fill="#00AEEF" d="M106.6,147.8c-0.1-0.1-0.2-0.3-0.3-0.4C106.4,147.5,106.5,147.6,106.6,147.8z"/>
	<path id="XMLID_123_" fill="#00AEEF" d="M101.2,161.6c0.2,0.2,0.3,0.3,0.3,0.5C101.5,161.9,101.4,161.8,101.2,161.6L101.2,161.6z"
		/>
	<path id="XMLID_122_" fill="#00AEEF" d="M46.4,203.5c-1,1-2,2-3.1,3C44.4,205.6,45.5,204.6,46.4,203.5z"/>
	<path id="XMLID_121_" fill="#00AEEF" d="M83.2,149.1c-1.1,1-2.2,2.1-3.2,3.2C81,151.2,82.1,150.1,83.2,149.1z"/>
	<path id="XMLID_65_" fill="#00AEEF" d="M80,152.3c-2.3,2.6-4.4,5.6-6.5,8.4c-3.8,4.8-6.3,10.4-9.2,15.8c2.8-5.4,5.4-11,9.2-15.8
		C75.7,158,77.7,155,80,152.3z"/>
	<path id="XMLID_64_" fill="#00AEEF" d="M107.3,166.4c-0.4-0.3-0.7-0.7-1.1-0.9c-0.2-0.1-0.4-0.3-0.6-0.4c0.2,0.1,0.4,0.3,0.6,0.4
		C106.6,165.7,107,166,107.3,166.4z"/>
	<path id="XMLID_63_" fill="#00AEEF" d="M103.8,139.1c0.6,0,1.2,0,1.7,0.1C105,139.1,104.5,139,103.8,139.1z"/>
	<path id="XMLID_62_" fill="#00AEEF" d="M109,168C109,168,109,168,109,168C109,168,109,168,109,168z"/>
	<path id="XMLID_61_" fill="#00AEEF" d="M103.5,144.5c0.8,0.9,1.7,1.8,2.5,2.6c0.1,0.1,0.2,0.2,0.3,0.3c-0.1-0.1-0.2-0.2-0.3-0.3
		C105.2,146.2,104.4,145.4,103.5,144.5z"/>
	<path id="XMLID_60_" fill="#00AEEF" d="M108.1,167.2c-0.3-0.3-0.5-0.5-0.8-0.8C107.6,166.6,107.9,166.9,108.1,167.2z"/>
	<path id="XMLID_59_" fill="#00AEEF" d="M105.5,139.2c0.5,0.1,0.9,0.2,1.3,0.4C106.5,139.4,106,139.2,105.5,139.2z"/>
	<path id="XMLID_52_" fill="#00AEEF" d="M95.2,143c-0.2,0-0.3-0.1-0.5,0C94.8,142.9,95,142.9,95.2,143z"/>
	<path id="XMLID_50_" fill="#00AEEF" d="M101.5,162.1c0,0.1,0,0.2,0,0.3C101.6,162.3,101.6,162.2,101.5,162.1z"/>
	<g>
		<path id="XMLID_51_" fill="#173C54" d="M110.1,144.2c-0.6-1.6-1.1-2.8-1.8-3.6c-0.3-0.3-0.6-0.6-0.9-0.8c-0.2-0.1-0.4-0.2-0.6-0.3
			c-0.4-0.2-0.8-0.3-1.3-0.4s-1.1-0.1-1.7-0.1c-0.3,0-0.7,0-1,0c-1.1,0.1-2.3,0.2-3.8,0.4c0.7,0.7,1.3,1.4,1.9,2.1s1.2,1.3,1.8,1.9
			c0.3,0.3,0.6,0.6,0.9,0.9c0.8,0.9,1.7,1.8,2.5,2.6c0.1,0.1,0.2,0.2,0.3,0.3c0.1,0.1,0.2,0.3,0.3,0.4c0.1,0.1,0.2,0.3,0.3,0.4
			c0.5,0.6,1.1,1,2.2,0c0.9-0.8,1.4-1.6,1.3-2.7C110.4,145.1,110.3,144.7,110.1,144.2z"/>
		<path id="XMLID_49_" fill="#173C54" d="M181,213.2c-1.7-1-3.4-1.9-5.1-2.9c-3.4-2-6.8-4-10.1-6.1c-3.3-2.1-6.6-4.2-9.9-6.4
			c-4.9-3.3-9.8-6.7-14.6-10.1c-2.9-2.1-5.7-4.1-8.6-6.1c-4.8-3.4-9.4-6.9-13.7-11c-0.1-0.1-0.1-0.1-0.2-0.2
			c-0.2-0.2-0.3-0.3-0.5-0.5c-0.1-0.1-0.3-0.2-0.4-0.3c-0.1,0-0.1-0.1-0.2-0.1c-0.3-0.1-0.5-0.1-0.8,0.1c-0.7,0.4-1.3,0.7-1.8,0.8
			c-0.3,0.1-0.6,0.1-0.8,0.2c-0.3,0-0.5,0-0.8,0s-0.5-0.1-0.7-0.1c-0.3-0.1-0.6-0.2-0.9-0.3c-0.4-0.2-0.7-0.4-1.1-0.6
			c-0.2-0.1-0.4-0.3-0.6-0.5c-0.4-0.3-0.8-0.7-1.1-1c0,0,0,0,0,0c-0.3-0.3-0.5-0.6-0.8-0.8c-0.3-0.3-0.5-0.5-0.8-0.8
			c-0.4-0.3-0.7-0.7-1.1-0.9c-0.2-0.1-0.4-0.3-0.6-0.4s-0.4-0.2-0.6-0.4c-0.4-0.2-0.8-0.5-1.2-0.7c-0.4-0.2-0.8-0.5-1.2-0.7
			c-0.4-0.3-0.8-0.5-1.1-0.9l0,0c-0.1-0.3-0.2-0.5-0.3-0.8l0,0l0,0c0.2,0.2,0.3,0.3,0.3,0.5c0-1.3-0.1-2.5-0.1-3.8h0
			c0.7-1.5,1.8-3.2,2-4.8c0.1-0.7,0-1.4-0.4-2.1c-1.2-1.9-2.7-3.7-4.3-5.4c-1-1-2-1.9-3.1-2.8c-0.2-0.1-0.3-0.2-0.5-0.3
			c-0.2,0-0.3-0.1-0.5,0c-0.2,0-0.4,0.1-0.5,0.2c-0.4,0.2-0.9,0.5-1.4,0.9c-0.2,0.1-0.4,0.3-0.6,0.4c-0.3,0.2-0.6,0.3-0.9,0.4
			c-1.1,0.3-2.1,0.7-3,1.1c-1.4,0.7-2.7,1.5-3.9,2.4c-0.4,0.3-0.8,0.6-1.2,0.9c-1.1,1-2.2,2.1-3.2,3.2c-2.3,2.6-4.4,5.6-6.5,8.4
			c-3.8,4.8-6.3,10.4-9.2,15.8c-0.4,0.8-0.8,1.5-1.2,2.3c-1.4,2.5-2.7,5-4.2,7.4c-0.7,1.2-1.5,2.4-2.2,3.7c-0.4,0.6-0.8,1.2-1.1,1.8
			c-1.5,2.4-3.2,4.7-4.9,6.9c-0.4,0.6-0.9,1.1-1.3,1.6c-0.9,1.1-1.9,2.1-2.8,3.2s-2,2-3.1,3c-0.3,0.3-0.6,0.5-0.9,0.8
			c-0.1,0.1-0.2,0.2-0.3,0.3c-0.2,0.2-0.4,0.3-0.6,0.5c-0.1,0.1-0.3,0.2-0.4,0.4c-0.2,0.1-0.3,0.3-0.5,0.4c-0.2,0.1-0.3,0.3-0.5,0.4
			c-0.1,0.1-0.3,0.2-0.4,0.3c-0.2,0.1-0.4,0.3-0.5,0.4c-0.1,0.1-0.3,0.2-0.4,0.3c-0.2,0.1-0.4,0.3-0.6,0.4c-0.1,0.1-0.3,0.2-0.4,0.3
			c-0.2,0.1-0.4,0.3-0.6,0.4c-0.1,0.1-0.2,0.2-0.4,0.2c-0.2,0.1-0.4,0.3-0.6,0.4c-0.1,0.1-0.2,0.1-0.4,0.2c-0.2,0.1-0.5,0.3-0.7,0.4
			c-0.1,0.1-0.2,0.1-0.3,0.2c-0.2,0.1-0.5,0.3-0.7,0.4c-0.1,0-0.2,0.1-0.3,0.1c-0.3,0.1-0.5,0.2-0.8,0.4c-0.1,0-0.2,0.1-0.2,0.1
			c-0.3,0.1-0.6,0.2-0.9,0.3c0,0-0.1,0-0.1,0c-1.4,0.5-2.9,0.9-4.5,1c0,0,0,0,0,0c3.7,4.2,9.1,6.9,15,6.9h149.9
			c4,0,7.7-1.2,10.8-3.2c0,0,0,0,0,0c-4.6-0.3-12.6-1.8-15.6-2.4C184,215.7,182.3,213.9,181,213.2z"/>
	</g>
	<path id="XMLID_48_" fill="#00AEEF" d="M101.5,162.4L101.5,162.4c0-0.1,0-0.2,0-0.3c-0.1-0.2-0.2-0.3-0.3-0.5
		C101.3,161.9,101.4,162.1,101.5,162.4z"/>
	<path id="XMLID_47_" fill="#00AEEF" d="M101.2,161.6c0.1,0.3,0.2,0.5,0.3,0.8C101.4,162.1,101.3,161.9,101.2,161.6L101.2,161.6z"/>
	<path id="XMLID_46_" fill="#00AEEF" d="M99,139.5c0.7,0.7,1.3,1.4,1.9,2.1C100.3,141,99.6,140.3,99,139.5L99,139.5z"/>
	<path id="XMLID_45_" fill="#00AEEF" d="M102.7,143.6c-0.6-0.6-1.2-1.3-1.8-1.9C101.5,142.3,102.1,142.9,102.7,143.6z"/>
	<path id="XMLID_44_" fill="#00AEEF" d="M110.4,145.4c0-0.4-0.1-0.8-0.3-1.2c-0.6-1.6-1.1-2.8-1.8-3.6c0.7,0.8,1.2,2,1.8,3.6
		C110.3,144.7,110.4,145.1,110.4,145.4z"/>
	<path id="XMLID_43_" fill="#00AEEF" d="M35.2,212.6c0.2-0.1,0.5-0.3,0.7-0.4C35.7,212.3,35.4,212.5,35.2,212.6z"/>
	<path id="XMLID_42_" fill="#00AEEF" d="M36.2,212c0.2-0.1,0.4-0.3,0.6-0.4C36.7,211.7,36.5,211.9,36.2,212z"/>
	<path id="XMLID_41_" fill="#00AEEF" d="M118.9,170.5c4.3,4.1,8.9,7.6,13.7,11C127.9,178.1,123.2,174.6,118.9,170.5z"/>
	<path id="XMLID_40_" fill="#00AEEF" d="M32,214.1c0.3-0.1,0.6-0.2,0.9-0.3C32.6,213.8,32.3,214,32,214.1z"/>
	<path id="XMLID_39_" fill="#00AEEF" d="M155.8,197.7c-4.9-3.3-9.8-6.7-14.6-10.1c-2.9-2.1-5.7-4.1-8.6-6.1c2.9,2,5.7,4,8.6,6.1
		C146,191.1,150.9,194.4,155.8,197.7z"/>
	<path id="XMLID_37_" fill="#00AEEF" d="M33.1,213.6c0.3-0.1,0.5-0.2,0.8-0.4C33.6,213.4,33.3,213.5,33.1,213.6z"/>
	<path id="XMLID_36_" fill="#00AEEF" d="M108.9,168c-0.3-0.3-0.5-0.6-0.8-0.8C108.4,167.5,108.7,167.7,108.9,168z"/>
	<path id="XMLID_35_" fill="#00AEEF" d="M34.2,213.1c0.2-0.1,0.5-0.2,0.7-0.4C34.6,212.9,34.4,213,34.2,213.1z"/>
	<path id="XMLID_33_" fill="#00AEEF" d="M113.4,170.6c-0.3,0-0.5-0.1-0.7-0.1C112.9,170.5,113.1,170.6,113.4,170.6z"/>
	<path id="XMLID_32_" fill="#00AEEF" d="M27.4,215.1c1.6-0.2,3.1-0.5,4.5-1C30.4,214.6,29,215,27.4,215.1z"/>
	<path id="XMLID_31_" fill="#00AEEF" d="M42.1,207.6c0.1-0.1,0.2-0.2,0.3-0.3C42.4,207.4,42.3,207.5,42.1,207.6z"/>
	<path id="XMLID_30_" fill="#00AEEF" d="M109,168c0.4,0.4,0.7,0.7,1.1,1C109.7,168.7,109.3,168.4,109,168z"/>
	<path id="XMLID_29_" fill="#00AEEF" d="M111.7,170.2c0.3,0.1,0.6,0.3,0.9,0.3C112.3,170.4,112,170.3,111.7,170.2z"/>
	<path id="XMLID_28_" fill="#00AEEF" d="M102.6,163.3c0.4,0.3,0.8,0.5,1.2,0.7C103.4,163.8,103,163.5,102.6,163.3z"/>
	<path id="XMLID_27_" fill="#00AEEF" d="M103.5,153.5c0.1-0.7,0-1.4-0.4-2.1c-1.2-1.9-2.7-3.7-4.3-5.4c1.7,1.6,3.2,3.4,4.3,5.4
		C103.5,152.1,103.6,152.8,103.5,153.5z"/>
	<path id="XMLID_26_" fill="#00AEEF" d="M40.2,209.2c0.2-0.1,0.3-0.3,0.5-0.4C40.5,209,40.4,209.1,40.2,209.2z"/>
	<path id="XMLID_25_" fill="#00AEEF" d="M39.2,210c0.2-0.1,0.4-0.3,0.5-0.4C39.6,209.7,39.4,209.8,39.2,210z"/>
	<path id="XMLID_24_" fill="#00AEEF" d="M38.2,210.7c0.2-0.1,0.4-0.3,0.6-0.4C38.6,210.4,38.4,210.6,38.2,210.7z"/>
	<path id="XMLID_23_" fill="#00AEEF" d="M117.6,169.5c0.1,0,0.1,0.1,0.2,0.1C117.8,169.5,117.7,169.5,117.6,169.5z"/>
	<path id="XMLID_22_" fill="#00AEEF" d="M37.3,211.4c0.2-0.1,0.4-0.3,0.6-0.4C37.7,211.1,37.5,211.2,37.3,211.4z"/>
	<path id="XMLID_21_" fill="#00AEEF" d="M41.2,208.4c0.1-0.1,0.3-0.2,0.4-0.4C41.4,208.2,41.3,208.3,41.2,208.4z"/>
	<g id="XMLID_12_" display="none">
		<path id="XMLID_18_" display="inline" fill="#FFFFFF" d="M101.2,161.6c0.1,0.3,0.2,0.5,0.3,0.8l0,0c0-0.1,0-0.2,0-0.3
			C101.5,161.9,101.4,161.8,101.2,161.6z"/>
		<path id="XMLID_13_" display="inline" fill="#FFFFFF" d="M214.2,213.3c-0.2-2.1-1.1-3.5-3.3-3.7c-1.3-0.1-2.7-0.1-4,0.1
			c-25.3,3.8-43.1-10.5-61.9-25.6c7.9-1.6,14.8-3,21.6-4.2c7.9-1.4,9.5-0.9,11.2,7.3c1.5,7.3,7.2,7.3,11.1,10.4
			c1,0.7,1.9-0.3,2.4-1.2c0.9-1.4,1.5-3,1.7-4.7c0.9-9.5-1.5-18.8-2.4-28.2c-0.1-1.3-1.1-4-2.5-2.9c-2.2,1.6-3.2,0.1-4.7-0.4
			c-2.3-0.8-4.6-0.9-6.7,0.7c-1,0.8-2.1,1.8-3.6,1.4c-5.2-1.2-10.8-0.4-15.8-3c-1.7-0.9-3.8-1.4-5.9-0.7c-4.4,1.4-6.2-1.4-7-4.9
			c-0.7-3.3-0.9-6.7-1-10.1c-0.2-7.6-1.9-15.5,3.1-22.5c0.7-1,1-2.7,0.8-3.9c-1.5-8.3,3.4-17.2-2.6-25c-0.3-0.3-0.3-1-0.2-1.5
			c1.6-6-1.8-10.4-4.6-14.9c-3.4-5.6-6.8-11.3-11.1-16.3c-1.2-1.4-2.8-3.1-1.5-4.9c3.4-4.9,0.9-9.8,0.5-14.6c-0.3-3.1-2-4.9-4.7-6.6
			c-7.4-4.5-15.9-2.4-22.1,4.9c-0.6,0.7-0.9,1.6-1.9,1.3c-5.3-2-10.6-0.3-15.9-0.2c-8.9,0.2-17.7-0.2-23.8,8c-0.5,0.6-1.3,1.1-2,1.5
			c-6,2.9-6.8,9.7-10.5,14.3c-0.9,1.1-1,3.6-2.8,4.4c-5.7,2.6-6.8,7.8-5,12.3c1.8,4.3,3.7,10.4,9.6,11c6.7,0.6,10.8,3.8,13.8,9.4
			c1.7,3.1,3.9,6,6.2,8.6c3.5,4.1,3.4,7.5-0.4,11.4c-3.3,3.4-5,8.3-5.1,12.5c-0.1,4.1-0.6,7-4.1,8.8c-6,3.2-8.2,8.5-9.2,14.8
			c-0.3,1.8-0.3,3.7-1.6,5.2c-6.6,8.1-8.1,18.4-10.8,28c-1.3,4.5-3,7.5-6.3,10.1c-2,1.5-4.3,2.7-6.4,4c-2.1,1.3-3.9,2.9-3,5.7
			c0.4,1.2-0.4,1.8-0.7,2.7c-0.4,1.5-3.7,1.7-2,3.9c1.7,2,3.3-0.1,4.9-0.6c0.6-0.2,1.3-0.4,2-0.4c7.2-0.1,12.6-4.3,17.5-8.7
			c8.5-7.7,14.3-17.7,19.7-27.6c3.4-6.1,6.1-12.6,10.4-18.1c5-6.4,9.2-13.7,17.8-16c1.5-0.4,3-2.6,4.4-1.5c2.8,2.4,5.6,5.1,7.4,8.2
			c1.2,2-0.6,4.7-1.7,6.9l0,0h0c0,1.3,0.1,2.5,0.1,3.8c0,0.1,0,0.2,0,0.3c1.4,1.3,3.2,2,4.7,3.1c2.9,2.1,5.3,7.4,10.5,4.1
			c0.9-0.5,1.5,0.3,2.1,0.9c6.8,6.5,14.7,11.6,22.3,17.1c12.8,9.3,26,17.9,39.8,25.6c1.3,0.7,3,2.5,6.5,3.2c3.7,0.8,14.5,2.7,18,2.5
			c2-0.1,4.1-0.2,6-0.7C213.8,217.5,214.4,215.6,214.2,213.3z M77,97.3c-0.2,0.2,0,1,0.1,1.4c1.1,5.5,1.1,5.5-3.2,10.9
			c-4.5-6.6-8.7-12.9-13.1-19.1c-1.5-2.1-1.9-3.7,0.2-5.6c2.5-2.1,3.4-5,3.1-8.2c-0.4-4,2-7,3.4-10.3c0.4-1,1.3-1.5,2.4-1.5
			c1.3,0,1.8,1.2,1.9,2c0.4,6.6,4.7,11.8,5.9,18.4C78.5,89.9,81.5,93.4,77,97.3z M109.1,148.2c-1.7,1.6-2.3-0.3-3.1-1.1
			c-2.3-2.2-4.4-4.6-7.1-7.5c8-1.2,9.3-0.4,11.2,4.7C110.8,146,110.3,147,109.1,148.2z"/>
	</g>
</g>
</svg>
