<?xml version="1.0" encoding="utf-8"?>
<!-- Generator: Adobe Illustrator 19.1.0, SVG Export Plug-In . SVG Version: 6.00 Build 0)  -->
<!DOCTYPE svg PUBLIC "-//W3C//DTD SVG 1.1//EN" "http://www.w3.org/Graphics/SVG/1.1/DTD/svg11.dtd">
<svg version="1.1" id="Layer_1" xmlns="http://www.w3.org/2000/svg" xmlns:xlink="http://www.w3.org/1999/xlink" x="0px" y="0px"
	 viewBox="0 0 795.4 86" enable-background="new 0 0 795.4 86" xml:space="preserve">
<g>
	<path fill="#173C54" d="M11.5,7.6h17v25h21.8v-25h17v66.6h-17V47.5H28.5v26.6h-17V7.6z"/>
	<path fill="#173C54" d="M228.9,49.2c-1,4-2.5,7.5-4.6,10.8c-2.1,3.2-4.7,6-7.6,8.2c-2.9,2.3-6.2,4.1-9.9,5.3
		c-3.7,1.3-7.5,1.9-11.5,1.9c-5.2,0-10-1-14.3-2.9c-4.3-1.9-8-4.5-11.1-7.7c-3.1-3.2-5.4-6.9-7.2-11.1c-1.7-4.2-2.6-8.5-2.6-13
		c0-4.3,0.8-8.4,2.4-12.6c1.6-4.1,3.9-7.8,6.9-11c3-3.2,6.7-5.9,11-7.9c4.3-2,9.2-3,14.7-3c5.2,0,9.8,0.9,13.9,2.7
		c4,1.8,7.4,4,10.2,6.7c2.8,2.6,5,5.5,6.6,8.6c1.6,3.1,2.7,6,3.1,8.6h-17.8c-0.5-1.3-1.2-2.6-2-3.9c-0.9-1.4-2-2.6-3.3-3.7
		c-1.3-1.1-2.9-2.1-4.7-2.8c-1.8-0.8-3.8-1.1-6.1-1.1c-2.9,0-5.4,0.6-7.6,1.7c-2.2,1.1-4,2.6-5.6,4.5c-1.5,1.8-2.7,3.9-3.5,6.3
		c-0.8,2.3-1.2,4.7-1.2,7c0,2.5,0.4,5,1.3,7.3c0.8,2.4,2,4.5,3.6,6.3c1.5,1.9,3.4,3.3,5.6,4.5c2.2,1.1,4.7,1.7,7.5,1.7
		c2.6,0,4.9-0.5,6.8-1.4c1.9-1,3.5-2.1,4.8-3.3c1.3-1.3,2.2-2.5,2.9-3.7c0.7-1.2,1.2-2.1,1.5-2.7H228.9z"/>
	<path fill="#173C54" d="M237.7,7.6h17v30h0.2l18.8-30h17.8l-22.1,33.2L293,74.2h-19.9l-18.2-28.8h-0.2v28.8h-17V7.6z"/>
	<path fill="#173C54" d="M299.5,7.6h37v14.9h-20.7v10.4h20.1v14.9h-20.1v11.4h20.7v14.9h-37V7.6z"/>
	<path fill="#173C54" d="M359.9,50L340,7.6h18.5l9.9,26.7l10-26.7h18.3L376.9,50v24.2h-17V50z"/>
</g>
<g>
	<path fill="#173C54" d="M144.2,27.2l1.3,4.9c-7.9-3.8-20.9-4.3-34.7-0.7S86,42,81,49.2l-1.3-4.9l-5,1.3l4,15l0,0
		c3.5,9.6,21.9,13.1,42,7.8s34.3-17.5,32.5-27.6l0,0l-4-15L144.2,27.2z"/>

		<ellipse id="XMLID_7_" transform="matrix(0.9664 -0.2571 0.2571 0.9664 -5.4276 29.9904)" fill="#2E73A1" cx="112" cy="35.7" rx="38.6" ry="19.2"/>
</g>
<g>
	<path fill="#173C54" d="M416.3,7.6h21.9l13.2,43.8h0.2l13.1-43.8h22v66.6h-15.7l0.5-49.9l-0.2-0.2l-14.2,50h-11.2l-14.2-50
		l-0.2,0.2l0.5,49.9h-15.7V7.6z"/>
	<path fill="#173C54" d="M496.6,27.5c0.9-2.2,2.2-4.5,4-6.9c1.7-2.5,3.9-4.8,6.6-6.9c2.7-2.1,5.8-3.9,9.5-5.3
		c3.6-1.4,7.8-2.1,12.5-2.1c5.1,0,9.8,0.9,14.1,2.8c4.3,1.9,8,4.4,11.2,7.5c3.1,3.1,5.5,6.8,7.3,11c1.7,4.2,2.6,8.6,2.6,13.2
		c0,4.6-0.9,9-2.6,13.2c-1.7,4.2-4.2,7.9-7.3,11c-3.1,3.2-6.8,5.7-11.2,7.5c-4.3,1.9-9.1,2.8-14.2,2.8c-5.2,0-10-1-14.3-2.9
		c-4.3-1.9-8-4.5-11.1-7.6c-3.1-3.2-5.4-6.8-7.1-10.8c-1.7-4-2.5-8.2-2.5-12.5c0-2.2,0.2-4.5,0.5-6.9
		C494.9,32.4,495.6,29.9,496.6,27.5z M511,40.7c0,2.6,0.4,5.1,1.3,7.4c0.8,2.4,2.1,4.5,3.6,6.3c1.6,1.8,3.5,3.3,5.8,4.4
		c2.2,1.1,4.8,1.7,7.7,1.7c3,0,5.6-0.6,7.9-1.8c2.2-1.2,4.1-2.8,5.6-4.7c1.5-1.9,2.6-4,3.3-6.3c0.8-2.3,1.1-4.5,1.1-6.7
		s-0.4-4.4-1.1-6.7c-0.8-2.3-1.9-4.4-3.3-6.4c-1.5-1.9-3.3-3.5-5.6-4.8c-2.3-1.2-4.9-1.8-8-1.8c-2.9,0-5.6,0.6-7.8,1.7
		c-2.3,1.1-4.2,2.6-5.7,4.5c-1.5,1.9-2.7,3.9-3.5,6.3C511.4,36,511,38.4,511,40.7z"/>
	<path fill="#173C54" d="M580.5,7.6l13.4,46.7h0.2l13.5-46.7h17.5l-22.3,66.6h-17.5L563,7.6H580.5z"/>
	<path fill="#173C54" d="M632.6,7.6h37v14.9h-20.7v10.4h20.1v14.9h-20.1v11.4h20.7v14.9h-37V7.6z"/>
	<path fill="#173C54" d="M680.1,7.6h21.1c2.9,0,5.5,0.1,7.6,0.3c2.1,0.2,3.9,0.5,5.5,0.9c1.6,0.4,2.9,0.9,4.1,1.5
		c1.2,0.6,2.3,1.3,3.4,2.2c2.8,2.2,4.8,4.9,6.2,8.1c1.3,3.3,2,6.6,2,10c0,1.9-0.3,4-0.8,6.2c-0.5,2.2-1.5,4.3-2.7,6.3
		c-1.3,2-3,3.8-5.1,5.3c-2.1,1.5-4.8,2.6-7.9,3.1l18.1,22.7H712l-15.4-21.5h-0.2v21.5h-16.3V7.6z M696.4,41.1h6c2.5,0,4.5-0.3,6-1
		c1.5-0.7,2.6-1.5,3.3-2.5c0.7-1,1.2-2,1.5-3.1c0.2-1.1,0.4-2,0.4-2.9c0-3.1-1-5.3-3-6.8c-2-1.5-4.7-2.2-8-2.2h-6.2V41.1z"/>
	<path fill="#173C54" d="M765,27c-0.1-0.5-0.3-1.2-0.4-1.9c-0.2-0.8-0.4-1.5-0.9-2.2c-0.4-0.7-1-1.3-1.8-1.7
		c-0.8-0.5-1.8-0.7-3.1-0.7c-1.5,0-2.9,0.5-4,1.4c-1.2,1-1.8,2.2-1.8,3.8c0,1,0.1,1.9,0.5,2.5c0.3,0.7,0.9,1.3,1.9,2
		c1,0.7,2.4,1.5,4.2,2.3c1.8,0.9,4.2,2,7.2,3.3c3.1,1.4,5.7,2.8,7.7,4.2c2,1.4,3.6,2.9,4.8,4.5c1.2,1.6,2,3.2,2.4,4.9
		c0.5,1.7,0.7,3.5,0.7,5.4c0,2.5-0.4,4.9-1.2,7.3c-0.8,2.4-2.1,4.6-3.9,6.5c-1.8,1.9-4.2,3.5-7.2,4.7c-3,1.2-6.6,1.8-11,1.8
		c-4.8,0-8.8-0.7-11.9-2.1c-3.1-1.4-5.6-3.2-7.4-5.3c-1.8-2.1-3-4.4-3.7-6.8c-0.7-2.5-1-4.8-1-6.9v-2.2H752c0,1.9,0.3,3.5,0.8,4.7
		c0.5,1.2,1.1,2.1,1.9,2.8c0.7,0.7,1.5,1.1,2.3,1.3c0.8,0.2,1.4,0.3,2,0.3c2,0,3.6-0.7,4.8-2c1.1-1.3,1.7-2.8,1.7-4.4
		c0-1.1-0.2-2-0.6-2.8c-0.4-0.8-1.1-1.5-2.1-2.2c-1-0.7-2.3-1.4-4-2.1c-1.7-0.7-3.8-1.7-6.4-2.7c-1.2-0.5-2.7-1.2-4.5-2
		c-1.8-0.9-3.6-2-5.4-3.5c-1.7-1.5-3.2-3.3-4.5-5.5c-1.3-2.2-1.9-4.9-1.9-8c0-3.1,0.7-5.9,2.1-8.3c1.4-2.4,3.2-4.5,5.4-6.2
		c2.2-1.7,4.7-3,7.5-3.8c2.8-0.9,5.5-1.3,8.4-1.3c3.3,0,6.6,0.6,9.9,1.8c3.3,1.2,6,3.1,8.1,5.7c1,1.2,1.7,2.4,2.3,3.6
		c0.6,1.2,1,2.3,1.3,3.4c0.3,1.1,0.5,2.2,0.6,3.2c0.1,1,0.2,2,0.2,3H765z"/>
</g>
</svg>
