<?xml version="1.0" encoding="utf-8"?>
<!-- Generator: Adobe Illustrator 19.1.0, SVG Export Plug-In . SVG Version: 6.00 Build 0)  -->
<!DOCTYPE svg PUBLIC "-//W3C//DTD SVG 1.1//EN" "http://www.w3.org/Graphics/SVG/1.1/DTD/svg11.dtd">
<svg version="1.1" id="Layer_1" xmlns="http://www.w3.org/2000/svg" xmlns:xlink="http://www.w3.org/1999/xlink" x="0px" y="0px"
	 viewBox="-129 133.3 100 94.7" style="enable-background:new -129 133.3 100 94.7;" xml:space="preserve">
<g transform="translate(0,-952.36216)">
	<path d="M-96.6,1088.7l-17.3,30l17.3,30l17.3,30l17.3-30l17.3-30l-17.3-30H-96.6L-96.6,1088.7L-96.6,1088.7z M-91.6,1097.2h24.8
		l12.4,21.4l-12.4,21.4h-24.8l-12.4-21.4L-91.6,1097.2z"/>
	<path d="M-77.4,1105l-6.4,15h-10l-2,2l2.3,2.8l9.7-0.7l8.1-19.1C-75.7,1105-77.4,1105-77.4,1105z"/>
	<path d="M-81.1,1105l6.4,15h10l2,2l-2.3,2.8l-9.7-0.7l-8.1-19.1C-82.8,1105-81.1,1105-81.1,1105z"/>
	<path d="M-81.3,1126.9l-2.7,1.7l0,0l0,0v1.8l2.7,1.9h5.4l2.7-1.9l-0.1-1.8h0.1l-2.7-1.7H-81.3z M-80.5,1127.4h3.9l1.9,1.2l-1.9,1.2
		h-3.9l-1.9-1.2L-80.5,1127.4z M-79.8,1128l-1.3,0.6l1.3,0.6h2.6l1.3-0.6l-1.3-0.6H-79.8z"/>
</g>
</svg>
