<svg xmlns:dc="http://purl.org/dc/elements/1.1/" xmlns:cc="http://creativecommons.org/ns#" xmlns:rdf="http://www.w3.org/1999/02/22-rdf-syntax-ns#" xmlns:svg="http://www.w3.org/2000/svg" xmlns="http://www.w3.org/2000/svg" xmlns:sodipodi="http://sodipodi.sourceforge.net/DTD/sodipodi-0.dtd" xmlns:inkscape="http://www.inkscape.org/namespaces/inkscape" viewBox="0 0 100 125" version="1.1" x="0px" y="0px"><g transform="translate(0,-952.36216)"><path style="opacity:1;fill:#000000;fill-opacity:1;stroke:none;stroke-width:10;stroke-linecap:round;stroke-linejoin:round;stroke-miterlimit:4;stroke-dasharray:none;stroke-dashoffset:0;stroke-opacity:1" d="m 49.97902,957.36216 -25.142568,13.00245 0.02105,25.9723 25.397232,51.02529 24.908811,-51.0579 -0.02091,-25.9723 -25.16362,-12.96984 z m 0.02105,3.96409 21.41699,11.05741 0,22.11455 -21.41699,11.05739 -21.41699,-11.05739 0,-22.11455 21.41699,-11.05741 z"/><path d="m 51.710401,970.93735 -5.862751,13.6809 -9.134856,0 -1.826972,1.82698 2.148519,2.59411 8.831579,-0.67433 7.375483,-17.42766 -1.531002,0 z" style="" fill="#000000" fill-rule="evenodd" stroke="none"/><path d="m 48.292137,970.93735 5.862751,13.6809 9.134857,0 1.826972,1.82698 -2.148519,2.59411 -8.831579,-0.67433 -7.375484,-17.42766 1.531002,0 z" style="" fill="#000000" fill-rule="evenodd" stroke="none"/><path d="m 48.151461,990.99018 -2.462757,1.51949 0,0.0183 0,0.0183 0,1.6894 2.477373,1.70895 4.952919,0 2.464585,-1.70895 -0.05481,-1.66948 0.05481,-0.0292 -2.477373,-1.52808 z m 0.699731,0.43299 3.555285,0 1.777644,1.09491 -1.777644,1.09509 -3.549804,0 -1.781298,-1.09509 z m 0.608381,0.58007 -1.174743,0.51484 1.174743,0.51521 2.34035,0 1.171088,-0.51521 -1.171088,-0.51484 z" style="color:#000000;font-style:normal;font-variant:normal;font-weight:normal;font-stretch:normal;font-size:medium;line-height:normal;font-family:sans-serif;text-indent:0;text-align:start;text-decoration:none;text-decoration-line:none;text-decoration-style:solid;text-decoration-color:#000000;letter-spacing:normal;word-spacing:normal;text-transform:none;direction:ltr;block-progression:tb;writing-mode:lr-tb;baseline-shift:baseline;text-anchor:start;white-space:normal;clip-rule:nonzero;display:inline;overflow:visible;visibility:visible;opacity:1;isolation:auto;mix-blend-mode:normal;color-interpolation:sRGB;color-interpolation-filters:linearRGB;solid-color:#000000;solid-opacity:1;fill:#000000;fill-opacity:1;fill-rule:nonzero;stroke:none;stroke-width:0.63830042;stroke-linecap:butt;stroke-linejoin:miter;stroke-miterlimit:4;stroke-dasharray:none;stroke-dashoffset:0;stroke-opacity:1;color-rendering:auto;image-rendering:auto;shape-rendering:auto;text-rendering:auto;enable-background:accumulate"/></g><text x="0" y="115" fill="#000000" font-size="5px" font-weight="bold" font-family="'Helvetica Neue', Helvetica, Arial-Unicode, Arial, Sans-serif">Created by anbileru adaleru</text><text x="0" y="120" fill="#000000" font-size="5px" font-weight="bold" font-family="'Helvetica Neue', Helvetica, Arial-Unicode, Arial, Sans-serif">from the Noun Project</text></svg>
