<svg xmlns:dc="http://purl.org/dc/elements/1.1/" xmlns:cc="http://creativecommons.org/ns#" xmlns:rdf="http://www.w3.org/1999/02/22-rdf-syntax-ns#" xmlns:svg="http://www.w3.org/2000/svg" xmlns="http://www.w3.org/2000/svg" xmlns:sodipodi="http://sodipodi.sourceforge.net/DTD/sodipodi-0.dtd" xmlns:inkscape="http://www.inkscape.org/namespaces/inkscape" viewBox="0 0 100 125" version="1.1" x="0px" y="0px"><g transform="translate(0,-952.36216)"><path style="opacity:1;fill:#000000;fill-opacity:1;stroke:none;stroke-width:2;stroke-linecap:butt;stroke-linejoin:miter;stroke-miterlimit:4;stroke-dasharray:none;stroke-dashoffset:0;stroke-opacity:1" d="M 49.999992,957.36218 A 35.585605,35.585605 0 0 0 14.414279,992.94791 35.585605,35.585605 0 0 0 37.88171,1026.373 l 12.118282,20.9892 12.128166,-21.0066 A 35.585605,35.585605 0 0 0 85.585704,992.94791 35.585605,35.585605 0 0 0 49.999992,957.36218 Z m 0,9.18973 a 26.396063,26.396063 0 0 1 26.395998,26.396 26.396063,26.396063 0 0 1 -26.395998,26.39599 26.396063,26.396063 0 0 1 -26.395999,-26.39599 26.396063,26.396063 0 0 1 26.395999,-26.396 z"/><path d="m 52.13205,977.35117 -7.313006,17.06515 -11.394553,0 -2.278902,2.27892 2.679987,3.23582 11.016258,-0.84115 9.199947,-21.73874 -1.909731,0 z" style="" fill="#000000" fill-rule="evenodd" stroke="none"/><path d="m 47.868218,977.35117 7.313021,17.06515 11.394538,0 2.278917,2.27892 -2.680002,3.23582 -11.016242,-0.84115 -9.199963,-21.73874 1.909731,0 z" style="" fill="#000000" fill-rule="evenodd" stroke="none"/><path d="m 47.69275,1002.3645 -3.071979,1.8953 0,0.023 0,0.023 0,2.1073 3.090198,2.1317 6.178133,0 3.07424,-2.1317 -0.06837,-2.0824 0.06837,-0.036 -3.090197,-1.9061 z m 0.872817,0.5401 4.434761,0 2.217365,1.3657 -2.217365,1.366 -4.427929,0 -2.221936,-1.366 z m 0.758869,0.7235 -1.465328,0.6422 1.465328,0.6427 2.919284,0 1.460789,-0.6427 -1.460789,-0.6422 z" style="color:#000000;font-style:normal;font-variant:normal;font-weight:normal;font-stretch:normal;font-size:medium;line-height:normal;font-family:sans-serif;text-indent:0;text-align:start;text-decoration:none;text-decoration-line:none;text-decoration-style:solid;text-decoration-color:#000000;letter-spacing:normal;word-spacing:normal;text-transform:none;direction:ltr;block-progression:tb;writing-mode:lr-tb;baseline-shift:baseline;text-anchor:start;white-space:normal;clip-rule:nonzero;display:inline;overflow:visible;visibility:visible;opacity:1;isolation:auto;mix-blend-mode:normal;color-interpolation:sRGB;color-interpolation-filters:linearRGB;solid-color:#000000;solid-opacity:1;fill:#000000;fill-opacity:1;fill-rule:nonzero;stroke:none;stroke-width:0.63830042;stroke-linecap:butt;stroke-linejoin:miter;stroke-miterlimit:4;stroke-dasharray:none;stroke-dashoffset:0;stroke-opacity:1;color-rendering:auto;image-rendering:auto;shape-rendering:auto;text-rendering:auto;enable-background:accumulate"/></g><text x="0" y="115" fill="#000000" font-size="5px" font-weight="bold" font-family="'Helvetica Neue', Helvetica, Arial-Unicode, Arial, Sans-serif">Created by anbileru adaleru</text><text x="0" y="120" fill="#000000" font-size="5px" font-weight="bold" font-family="'Helvetica Neue', Helvetica, Arial-Unicode, Arial, Sans-serif">from the Noun Project</text></svg>
