<?xml version="1.0" encoding="utf-8"?>
<!-- Generator: Adobe Illustrator 19.1.0, SVG Export Plug-In . SVG Version: 6.00 Build 0)  -->
<!DOCTYPE svg PUBLIC "-//W3C//DTD SVG 1.1//EN" "http://www.w3.org/Graphics/SVG/1.1/DTD/svg11.dtd">
<svg version="1.1" id="Layer_1" xmlns="http://www.w3.org/2000/svg" xmlns:xlink="http://www.w3.org/1999/xlink" x="0px" y="0px"
	 viewBox="-129 133.3 100 94.7" style="enable-background:new -129 133.3 100 94.7;" xml:space="preserve">
<style type="text/css">
	.st0{fill:none;}
</style>
<g>
	<polygon class="st0" points="-87.9,216.1 -82.6,217.3 -79.2,217.3 -79.2,209.8 -87.9,209.8 	"/>
	<rect x="-98.5" y="181" class="st0" width="9.1" height="6.5"/>
	<rect x="-98.5" y="189" class="st0" width="9.1" height="9.1"/>
	<rect x="-87.9" y="199.5" class="st0" width="8.8" height="8.8"/>
	<rect x="-98.5" y="199.5" class="st0" width="9.1" height="8.8"/>
	<rect x="-87.9" y="189" class="st0" width="8.8" height="9.1"/>
	<path class="st0" d="M-103,196.5l0.2,1.5h3c0,0,0-9.1,0.2-9.1h-3.3V196.5z"/>
	<polygon class="st0" points="-89.6,209.8 -97,209.8 -93,213.3 -89.6,215.1 	"/>
	<polygon class="st0" points="-102,202.4 -99.8,205.9 -99.8,199.5 -102.6,199.5 	"/>
	<polygon class="st0" points="-53.6,159.5 -55.6,155.7 -58,152 -61.5,148.5 -65.4,145.9 -68.3,144.7 -73.4,145.9 -83.2,145.9
		-88.1,144.7 -90.9,145.9 -94.9,148.5 -98.3,152 -100.7,155.7 -102.7,159.5 -103.8,162.2 -52.6,162.2 	"/>
	<rect x="-103.2" y="181" class="st0" width="3.3" height="6.5"/>
	<rect x="-87.9" y="181" class="st0" width="8.8" height="6.5"/>
	<rect x="-56.8" y="181" class="st0" width="3.5" height="6.5"/>
	<rect x="-67.4" y="181" class="st0" width="9.1" height="6.5"/>
	<polygon class="st0" points="-56.8,206.3 -54.5,202.4 -53.9,199.5 -56.8,199.5 	"/>
	<polygon class="st0" points="-56.8,198 -53.6,198 -53.3,196.5 -53.3,189 -56.8,189 	"/>
	<polygon class="st0" points="-106.8,169.2 -97.3,169.2 -97.3,170.7 -106.8,170.7 -106.8,172.5 -97.3,172.5 -97.3,174 -106.8,174
		-106.8,176 -49.7,176 -49.7,174 -59.2,174 -59.2,172.5 -49.7,172.5 -49.7,170.7 -59.2,170.7 -59.2,169.2 -49.7,169.2 -49.7,167.2
		-106.8,167.2 	"/>
	<polygon class="st0" points="-77.6,217.3 -74,217.3 -68.9,216.1 -68.9,209.8 -77.6,209.8 	"/>
	<rect x="-67.4" y="199.5" class="st0" width="9.1" height="8.8"/>
	<rect x="-77.6" y="189" class="st0" width="8.8" height="9.1"/>
	<rect x="-77.6" y="181" class="st0" width="8.8" height="6.5"/>
	<rect x="-77.6" y="199.5" class="st0" width="8.8" height="8.8"/>
	<rect x="-67.4" y="189" class="st0" width="9.1" height="9.1"/>
	<polygon class="st0" points="-67.4,215.4 -63.6,213.3 -59.8,209.8 -67.4,209.8 	"/>
	<path d="M-47.4,161.9v0.3l-1.7-4.7l-2.3-4.4l-2.9-4.4l-4.1-4.2l-4.7-3.2l-4.8-2.1l-6.2,1.5h-8.6l-6.2-1.4l-4.8,2l-5,3.5l-4.5,5
		l-2.1,3.3l-2.3,4.4l-0.3,0.9l-5.1,5v6.8v1.5v8.8v1.5h1.5h3.3v10.4v4.5l0.6,3l1.2,4.7l2.7,4.8l3.6,4.2l3.9,3.3l6.2,3.5l6.5,1.5h9.8
		l6.5-1.5l6.2-3.5l3.9-3.3l3.6-4.2l3.2-5.6l1.7-7.1v-16.2h3.5v-18.7H-47.4z M-102.7,159.5l2-3.8l2.4-3.8l3.5-3.5l3.9-2.6l2.9-1.2
		l4.8,1.2h9.8l5.1-1.2l2.9,1.2l3.9,2.6l3.5,3.5l2.4,3.8l2,3.8l1.1,2.7h-51.2L-102.7,159.5z M-99.8,205.9l-2.1-3.5l-0.6-2.9h2.7
		V205.9z M-99.8,198h-3l-0.2-1.5V189h3.3C-99.8,189-99.8,198-99.8,198z M-103.2,187.4V181h3.3v6.5H-103.2z M-93,213.3l-3.9-3.5h7.4
		v5.4L-93,213.3z M-89.4,208.3h-9.1v-8.8h9.1V208.3z M-89.4,198h-9.1V189h9.1V198z M-89.4,187.4h-9.1V181h9.1V187.4z M-79.2,217.3
		h-3.5l-5.3-1.2v-6.3h8.8V217.3z M-79.2,208.3h-8.8v-8.8h8.8V208.3z M-79.2,198h-8.8V189h8.8V198z M-79.2,187.4h-8.8V181h8.8V187.4z
		 M-68.9,216.1l-5.1,1.2h-3.6v-7.5h8.8V216.1z M-68.9,208.3h-8.8v-8.8h8.8V208.3z M-68.9,198h-8.8V189h8.8V198z M-68.9,187.4h-8.8
		V181h8.8V187.4z M-63.6,213.3l-3.8,2.1v-5.6h7.5L-63.6,213.3z M-58.3,208.3h-9.1v-8.8h9.1V208.3z M-58.3,198h-9.1V189h9.1V198z
		 M-58.3,187.4h-9.1V181h9.1V187.4z M-54.5,202.4l-2.3,3.9v-6.8h2.9L-54.5,202.4z M-53.3,196.5l-0.3,1.5h-3.2V189h3.5V196.5z
		 M-53.3,187.4h-3.5V181h3.5V187.4z M-49.7,169.2h-9.5v1.5h9.5v1.8h-9.5v1.5h9.5v2h-57.1v-2h9.5v-1.5h-9.5v-1.8h9.5v-1.5h-9.5v-2
		h57.1V169.2z"/>
</g>
</svg>
