<?xml version="1.0" encoding="utf-8"?>
<!-- Generator: Adobe Illustrator 19.1.0, SVG Export Plug-In . SVG Version: 6.00 Build 0)  -->
<!DOCTYPE svg PUBLIC "-//W3C//DTD SVG 1.1//EN" "http://www.w3.org/Graphics/SVG/1.1/DTD/svg11.dtd">
<svg version="1.1" id="Layer_1" xmlns="http://www.w3.org/2000/svg" xmlns:xlink="http://www.w3.org/1999/xlink" x="0px" y="0px"
	 viewBox="-129 131.2 100 75.8" style="enable-background:new -129 131.2 100 75.8;" xml:space="preserve">
<style type="text/css">
	.st0{display:none;}
	.st1{display:inline;}
	.st2{enable-background:new    ;}
	.st3{display:inline;fill:none;stroke:#FFFFFF;stroke-miterlimit:10;}
	.st4{display:inline;fill:none;}
	.st5{display:inline;stroke:#FFFFFF;stroke-miterlimit:10;}
	.st6{display:inline;fill:none;stroke:#000000;stroke-width:0.5;stroke-miterlimit:10;}
	.st7{clip-path:url(#SVGID_2_);}
	.st8{stroke:#FFFFFF;stroke-width:0.5;stroke-linecap:round;stroke-linejoin:round;stroke-miterlimit:10;}
</style>
<g class="st0">
	<rect x="-321" y="118" class="st1" width="185" height="99"/>
	<rect x="-129" y="82" class="st1" width="100" height="30"/>
	<text transform="matrix(1 0 0 1 -63 98.5)" class="st1" style="font-family:'Helvetica'; font-size:2.4px;">http://thenounproject.com</text>
	<text transform="matrix(1 0 0 1 -121.834 93.5)" class="st1" style="font-family:'Helvetica-Bold'; font-size:6.1578px;">The Noun Project</text>
	<text transform="matrix(1 0 0 1 -120.714 98.3)" class="st1" style="font-family:'Helvetica-Bold'; font-size:4px;">Icon Template</text>
	<text transform="matrix(1 0 0 1 -307.5 128.5)" class="st1" style="font-family:'Helvetica-Bold'; font-size:6.1578px;">Reminders</text>
	<line class="st3" x1="-121" y1="103.5" x2="-111" y2="103.5"/>
	<line class="st3" x1="-308" y1="134.5" x2="-291" y2="134.5"/>
	<g class="st1">
		<g>
			<g>
				<rect x="-299.8" y="149.3" width="8.7" height="8.6"/>
				<path d="M-293.5,160.3h4.7v-4.7h-4.7V160.3z M-288.3,160.7h-5.6v-5.6h5.6V160.7L-288.3,160.7z M-295.2,162.1h8.3v-8.2h-8.3
					V162.1L-295.2,162.1z M-286.5,162.5h-9.2v-9.1h9.2V162.5L-286.5,162.5z"/>
				<polygon points="-295.1,162.1 -295.3,162 -287,153.8 -286.9,153.9 				"/>
			</g>
		</g>
	</g>
	<rect x="-308" y="176" class="st4" width="35" height="32.5"/>
	<text transform="matrix(1 0 0 1 -308 178.1572)" class="st1" style="font-family:'Helvetica-Bold'; font-size:3px;">Strokes</text>
	<text transform="matrix(1 0 0 1 -308 183.1572)" class="st1" style="font-family:'Helvetica'; font-size:2.4px;">Try to keep strokes at 4px</text>
	<text transform="matrix(1 0 0 1 -308 188.1572)" class="st1" style="font-family:'Helvetica'; font-size:2.4px;">Minimum stroke weight is 2px</text>
	<text transform="matrix(1 0 0 1 -308 192.6572)" class="st1" style="font-family:'Helvetica'; font-size:2.4px;">For thicker strokes use even </text>
	<text transform="matrix(1 0 0 1 -308 195.6572)" class="st1" style="font-family:'Helvetica'; font-size:2.4px;">numbers: 6px, 8px etc.</text>
	<text transform="matrix(1 0 0 1 -308 200.1572)" class="st1" style="font-family:'Helvetica-Bold'; font-size:2.4px;">Remember to expand strokes </text>
	<text transform="matrix(1 0 0 1 -308 203.1572)" class="st1" style="font-family:'Helvetica-Bold'; font-size:2.4px;">before saving as an SVG </text>
	<rect x="-265.5" y="176" class="st4" width="35" height="32.5"/>
	<text transform="matrix(1 0 0 1 -265.5 178.1572)" class="st1" style="font-family:'Helvetica-Bold'; font-size:3px;">Size</text>
	<text transform="matrix(1 0 0 1 -265.5 183.1572)" class="st1" style="font-family:'Helvetica'; font-size:2.4px;">Cannot be wider or taller than </text>
	<text transform="matrix(1 0 0 1 -265.5 186.6572)" class="st1" style="font-family:'Helvetica'; font-size:2.4px;">100px (artboard size)</text>
	<text transform="matrix(1 0 0 1 -265.5 191.6572)" class="st1" style="font-family:'Helvetica'; font-size:2.4px;">Scale your icon to fill as much of </text>
	<text transform="matrix(1 0 0 1 -265.5 194.6572)" class="st1" style="font-family:'Helvetica'; font-size:2.4px;">the artboard as possible</text>
	<rect x="-223" y="176" class="st4" width="35" height="32.5"/>
	<text transform="matrix(1 0 0 1 -223 178.1572)" class="st1" style="font-family:'Helvetica-Bold'; font-size:3px;">Ungroup</text>
	<text transform="matrix(1 0 0 1 -223 183.1572)" class="st1" style="font-family:'Helvetica'; font-size:2.4px;">If your design has more than one </text>
	<text transform="matrix(1 0 0 1 -223 186.1572)" class="st1" style="font-family:'Helvetica'; font-size:2.4px;">shape, make sure to ungroup</text>
	<rect x="-179" y="176" class="st4" width="35" height="32.5"/>
	<text transform="matrix(1 0 0 1 -179 178.1572)" class="st1" style="font-family:'Helvetica-Bold'; font-size:3px;">Save as</text>
	<text transform="matrix(1 0 0 1 -179 183.1572)" class="st1" style="font-family:'Helvetica'; font-size:2.4px;">Save as .SVG and make sure </text>
	<text transform="matrix(1 0 0 1 -179 186.1572)" class="st1" style="font-family:'Helvetica'; font-size:2.4px;">“Use Artboards” is checked</text>
	<text transform="matrix(1.0074 0 0 1 -254.542 148.5933)" class="st1" style="font-family:'Helvetica'; font-size:2.5731px;">100px</text>
	<text transform="matrix(1.0074 0 0 1 -170 157)" class="st1" style="font-family:'Helvetica-Bold'; font-size:5.1462px;">.SVG</text>
	<rect x="-255.5" y="152.8" class="st1" width="10.3" height="10.2"/>
	<rect x="-255.5" y="149.8" class="st1" width="0.5" height="2.3"/>
	<rect x="-245.8" y="149.8" class="st1" width="0.5" height="2.3"/>
	<rect x="-256" y="150.3" class="st1" width="11.2" height="0.6"/>
	<g class="st1">
		<rect x="-212.8" y="151.8" width="10.3" height="10.2"/>
		<rect x="-205.8" y="146.7" width="3.3" height="3.3"/>
	</g>
	<rect x="-307.5" y="140.5" class="st5" width="30" height="30"/>
	<rect x="-265.5" y="140.5" class="st5" width="30" height="30"/>
	<rect x="-222.5" y="140.5" class="st5" width="30" height="30"/>
	<rect x="-178.5" y="140.5" class="st5" width="30" height="30"/>
</g>
<g class="st0">
	<path class="st1" d="M-113.2,195.9c-0.2-5.6,16.4-59.3,55.2-72.8c-16.6-8.3-37.5-4.8-48.1,2.9
		C-137.4,158.5-119.9,190.8-113.2,195.9z"/>
	<path class="st1" d="M-111.2,197.8c25.9,16.2,80.8-45.7,73.6-56.8c-3.7-7.3-11.4-13.2-17.8-16.6C-63,121-104.8,158.9-111.2,197.8z"
		/>
	<path class="st1" d="M-109.8,128.9c-3.4,1.4-35.5,31.4-8.5,69.8c0,0,3.6,3.7,5,4.1c-0.1-3-0.2-3.8-0.2-4.9
		C-116,196.6-140.5,164.3-109.8,128.9z"/>
	<path class="st1" d="M-111.4,199.4c27.6,19.7,84-48.1,75.4-55.8c0.7,0.8,15.3,23.2,0.1,49c-16.6,28.1-60.8,24.3-75.1,11.7
		C-111.9,201.8-111.6,201.2-111.4,199.4z"/>
	<path class="st1" d="M-110.4,205.5l0,1c35.7,26.7,67.9-2.6,69.8-7.1C-56.8,216.4-88.5,221.4-110.4,205.5z"/>
</g>
<g class="st0">
	<path class="st1" d="M-70.5,203.9c2.1-6.3,16.9-24.3,26.4-27.5c4.2,10.6,9.5,29.6,6.3,32.7S-65.3,206-70.5,203.9z"/>
	<path class="st1" d="M-43.1,176.4c2.1-1.1,5.3-3.2,9.5,1.1c2.1,2.1,4.2,29.6-2.1,30.6C-35.7,202.9-36.7,187-43.1,176.4z"/>
	<path class="st1" d="M-55.4,154.2c-0.1,0-0.2,0.1-0.3,0.1c-0.6,0.3-1.2,0.7-1.7,1.1c-0.2,0.2-0.5,0.4-0.6,0.7
		c-0.4,0.1-0.8,0.2-1.4,0.4c-0.3-0.5-0.4-1.1-0.4-1.7c0.3-0.4,0.6-0.7,1-1.1c0.7-0.6,1.4-1,2.1-1.4c-0.9-1.2-1.9-2.4-2.9-3.6
		c-0.3,0.1-0.5,0.2-0.8,0.3c-0.6,0.3-1.2,0.6-1.7,1c-0.2,0.2-0.5,0.4-0.6,0.6c-0.4,0-0.8,0.1-1.4,0.4c-0.3-0.5-0.4-1.1-0.3-1.6
		c0.3-0.4,0.6-0.7,1-1c0.7-0.6,1.4-1,2.2-1.3c0.1,0,0.1,0,0.2-0.1c-1-1.2-2.2-2.4-3.3-3.7c-0.5,0.4-1,0.9-1.5,1.4l-0.8,0.8
		c-0.5,0-1,0.1-1.6-0.1c0.1-0.6,0.1-1,0.2-1.5c0.3-0.2,0.5-0.5,0.8-0.7c0.5-0.5,1-1,1.5-1.4c-1.3-1.3-2.6-2.6-3.9-3.9c0,0,0,0,0,0
		c-0.6,0.3-1,0.7-1.4,1.1c-0.2,0.2-0.3,0.5-0.4,0.7c-0.4,0.1-0.8,0.3-1.3,0.6c-0.4-0.4-0.5-1-0.6-1.5c0.2-0.4,0.4-0.8,0.7-1.2
		c0.4-0.5,0.9-1,1.5-1.3c-1.3-1.2-2.6-2.4-4-3.6c-0.5,0.2-0.9,0.4-1.3,0.7c-0.2,0.2-0.4,0.4-0.6,0.7c-0.4,0.1-0.8,0.3-1.3,0.7
		c-0.4-0.5-0.5-1.1-0.5-1.7c0.3-0.5,0.6-0.9,1-1.2c0.3-0.2,0.6-0.4,0.9-0.6c-1.1-0.9-2.1-1.7-3.2-2.5c-0.5,0.3-1,0.6-1.4,0.9
		c-0.3,0.2-0.6,0.5-0.8,0.8c-0.5,0.1-0.9,0.2-1.5,0.4c-0.2-0.6-0.2-1.2-0.1-1.8c0.3-0.4,0.7-0.7,1.1-1c0.3-0.2,0.6-0.4,0.9-0.6
		c-0.8-0.6-1.6-1.2-2.4-1.7c-0.5,0.2-1,0.4-1.4,0.7c-0.3,0.2-0.5,0.4-0.7,0.6c-0.4,0-0.8,0.1-1.4,0.3c-0.3-0.5-0.3-1.1-0.2-1.7
		c0.3-0.4,0.7-0.7,1.1-0.9c0.1-0.1,0.3-0.2,0.4-0.3c-2.9-1.8-5.7-3.2-8.3-4c-13.8,6.9-19.6,10.7-31.7,30.6
		c2.1,7.4,7.4,29.6,43.3,46.5c2.1-9.5,15.8-26.4,32.7-33.8C-50.5,161.9-52.3,158.4-55.4,154.2z"/>
	<path class="st1" d="M-39.9,212.4c-81.3-13.7-87.7-62.3-87.7-62.3s-3.2,25.4,25.4,48.6C-72.7,221.9-33.8,213.4-39.9,212.4z"/>
	<path class="st1" d="M-127.1,142.6c1.6-10,2.4-13.7,6.1-17.3c4.9-4.9,10.6-5.1,20.1-5.6C-114.6,123.1-123.6,134.8-127.1,142.6z"/>
	<path class="st1" d="M-92.7,120.5c2.4,1.2,4.6,2.4,6.8,3.7c0.4-0.2,0.9-0.4,1.3-0.5c0.8-0.3,1.6-0.4,2.5-0.5
		c0.4-0.1,0.8-0.1,1.2-0.1c0.4,0.3,0.9,0.6,1.2,1l-1.1,1.1c-0.4,0-0.7,0.1-1.1,0.1c-0.6,0.1-1.2,0.2-1.7,0.4c0.8,0.5,1.6,1,2.4,1.5
		c0.2-0.1,0.5-0.3,0.7-0.4c0.9-0.4,1.8-0.7,2.8-0.8c0.5-0.1,1-0.1,1.5,0c0.5,0.4,0.9,0.8,1.2,1.3c-0.6,0.2-1,0.5-1.4,0.8
		c-0.3,0-0.7,0-1.1,0c-0.6,0.1-1.1,0.2-1.7,0.4c1.2,0.8,2.3,1.6,3.4,2.4c0.1,0,0.3-0.1,0.4-0.1c0.9-0.3,1.8-0.4,2.7-0.5
		c0.4,0,0.9-0.1,1.3-0.1c0.4,0.3,0.9,0.6,1.3,1c-0.4,0.4-0.8,0.7-1.2,1.1c-0.4,0-0.8,0-1.2,0.1c-0.4,0-0.8,0.1-1.1,0.1
		c1.4,1.1,2.7,2.1,3.9,3.2c0.4-0.1,0.8-0.3,1.2-0.4c0.4-0.1,0.8-0.2,1.2-0.2c0.4,0.3,0.9,0.6,1.2,1l-1,1.1c-0.3,0-0.5,0.1-0.8,0.1
		c1.3,1.2,2.4,2.3,3.5,3.4c0.2-0.1,0.5-0.3,0.8-0.3c0.4-0.2,0.9-0.3,1.3-0.3c0.5,0.3,0.9,0.6,1.2,1c-0.4,0.4-0.7,0.7-1,1.1
		c-0.3,0-0.5,0.1-0.8,0.2c1.3,1.4,2.5,2.8,3.5,4.1c0.1,0,0.1,0,0.2-0.1c0.4-0.1,0.8-0.2,1.2-0.2c0.5,0.3,0.9,0.5,1.3,0.9l-1,1.2
		c-0.1,0-0.2,0-0.3,0.1c0.9,1.2,1.8,2.4,2.5,3.5c0.3-0.1,0.7-0.2,1-0.3c0.4-0.1,0.9-0.2,1.3-0.2c0.5,0.3,0.9,0.6,1.3,1
		c-0.4,0.4-0.8,0.7-1.1,1.1c-0.3,0-0.7,0.1-1,0.2c-0.1,0-0.2,0.1-0.3,0.1c3.2,5.2,4.4,8.9,4.7,9.5c4-1.1,7.9-1.6,11.2,0.9
		C-54.2,125.8-89,119.6-92.7,120.5z"/>
</g>
<g class="st0">
	<path class="st1" d="M-99.1,210.4c-4.3-2.6-8.3-5.8-11.4-10c-3.1-4.1-5.1-9.2-5.5-14.5c-0.4-5.3,0.7-10.5,2.5-15.3l0-0.1l0.1-0.2
		c2.1-3.6,4.6-6.9,7.9-9.6c1.6-1.4,3.4-2.6,5.3-3.5c1.9-0.9,3.9-1.7,6-2.2c4.1-1,8.3-1.1,12.4-0.7c4.1,0.5,8,1.4,11.9,2.5
		c7.7,2.3,14.9,5.5,22.2,8.2c1.8,0.6,3.7,1.2,5.5,1.7c1.8,0.4,3.7,0.7,5.5,0.4c0.9-0.1,1.8-0.4,2.5-0.9c0.8-0.5,1.4-1.1,1.9-1.9
		c0.8-1.3,1-3.8,0.9-4.2c-3.6-23.3-23.1-41.1-47.4-41.1c-26.8,0-48.6,21.8-48.6,48.6c0,23.5,16.7,43.1,38.8,47.6
		c-1.3-0.4-2.7-0.9-4-1.5C-94.7,212.8-96.9,211.7-99.1,210.4z"/>
	<path class="st1" d="M-30.5,161c-0.1,1.3-0.4,2.5-0.9,3.7c-0.4,0.9-1.1,1.8-1.9,2.5c-0.8,0.7-1.9,1.1-2.9,1.4
		c-2.1,0.5-4.2,0.4-6.2,0.1c-2-0.3-4-0.7-5.9-1.3c-3.8-1-7.6-2.3-11.3-3.5c-3.7-1.2-7.4-2.4-11.2-3.4c-3.7-1-7.5-1.7-11.2-2
		c-3.7-0.3-7.5-0.2-11,0.7c-3.5,0.9-6.8,2.5-9.6,4.8c-2.8,2.3-5.1,5.2-7,8.3c-1.7,4.3-2.8,8.9-2.6,13.4c0.1,4.6,1.6,9.1,4.2,13
		c2.5,4,6.1,7.3,9.9,10.2c3.6,2.6,7.6,4.2,11.7,6c2.5,0.9,5.1,1.2,7.8,1.2c26.8,0,48.6-21.8,48.6-48.6
		C-30.1,165.3-30.2,163.1-30.5,161z"/>
</g>
<g class="st0">
	<g class="st1">
		<path d="M-30,168c0,27.1-21.9,49-49,49s-49-21.9-49-49s21.9-49,49-49S-30,140.9-30,168z M-92.3,214.2l1.2-0.1c0.5,0,1,0,1,0
			c0.6,0,1-0.4,1-1c0-0.5-0.4-1-1-1c0,0-0.6,0-1.2,0l-1.2,0.1c-0.5,0-1,0.5-0.9,1.1C-93.4,213.9-92.9,214.3-92.3,214.2
			C-92.4,214.2-92.4,214.2-92.3,214.2z M-97.3,210.9l1.4-0.2c0.6-0.1,1.2-0.1,1.2-0.1c0.5-0.1,0.9-0.5,0.9-1.1
			c-0.1-0.5-0.5-0.9-1.1-0.9c0,0-0.6,0.1-1.3,0.2l-1.4,0.2c-0.5,0.1-0.9,0.6-0.8,1.1c0.1,0.5,0.5,0.9,1,0.9
			C-97.4,210.9-97.3,210.9-97.3,210.9z M-101,210.1c0,0,0-0.1,0-0.1c0-0.1-0.1-0.6-0.1-1.1c0-0.6,0-1.2,0-1.2c0-0.5-0.4-0.7-0.8-0.7
			c0,0,0,0,0,0c-0.5,0-0.8,0.2-0.8,0.7c0,0,0,0.5,0,1.2c0,1.2,0.1,2.1,0.9,2.1C-101.3,210.9-101,210.6-101,210.1z M-101.5,206.7
			l2.7-0.4c0.5-0.1,0.8-0.5,0.7-1c-0.1-0.5-0.5-0.8-1-0.7l-2.7,0.4c-0.5,0.1-0.8,0.5-0.7,1c0.1,0.4,0.4,0.8,0.9,0.8
			C-101.6,206.7-101.5,206.7-101.5,206.7z M-104.8,206.9c0,0,0.1-0.8,0.2-1.5c0.1-0.8,0.3-1.5,0.4-1.5c0.1-0.5-0.2-1-0.7-1.1
			c-0.5-0.1-1.1,0.2-1.2,0.7c0,0-0.2,0.8-0.4,1.7c-0.1,0.8-0.2,1.6-0.2,1.6c-0.1,0.5,0.3,0.9,0.9,1c0,0,0.1,0,0.1,0
			C-105.3,207.7-104.8,207.4-104.8,206.9z M-106,202.5l3.4-0.4c0.5-0.1,0.9-0.6,0.9-1.1c-0.1-0.5-0.6-0.9-1.1-0.9l-3.4,0.4
			c-0.5,0.1-0.9,0.6-0.9,1.1c0.1,0.5,0.5,0.9,1,0.9C-106.1,202.5-106,202.5-106,202.5z M-109.5,198l1.9-0.3c1,0,1.9-0.3,1.9-0.3
			c0.5,0,1-0.5,0.9-1c0-0.5-0.5-1-1.1-0.9c0,0-0.9,0.1-1.8,0.1l-1.9,0.1c-0.5,0-1,0.6-1,1.1C-110.5,197.3-110,198-109.5,198
			C-109.5,198-109.5,198-109.5,198z M-114.6,196.9c0,0,0.5-0.8,1-1.6c0.5-0.8,1.1-1.5,1.1-1.5c0.3-0.4,0.2-1-0.2-1.3
			c-0.4-0.3-1-0.2-1.3,0.2c0,0-0.6,0.8-1.2,1.6c-0.6,0.8-1.1,1.6-1.1,1.7c-0.3,0.4-0.1,1,0.3,1.2c0.1,0.1,0.3,0.1,0.5,0.1
			C-115,197.4-114.7,197.2-114.6,196.9z M-109.4,203.5c0,0,0.1-0.9,0.3-1.8c0.2-0.9,0.4-1.8,0.4-1.8c0.1-0.5-0.1-1-0.6-1.1
			c-0.5-0.1-1,0.1-1.1,0.6c0,0-0.3,1-0.5,1.9c-0.2,1-0.4,1.9-0.4,1.9c-0.1,0.5,0.3,1,0.7,1c0.2,0,0.3,0,0.5,0
			C-109.7,204-109.5,203.8-109.4,203.5z M-106.9,191.8c0-0.5-0.4-1.2-0.9-1.3c0,0-1,0-2-0.1c-1-0.1-2-0.2-2-0.2
			c-0.5-0.1-1,0.3-1.1,0.9c-0.1,0.5,0.3,1.1,0.8,1.2c0,0,1.1,0.3,2.1,0.4c1.1,0.1,2.1,0.4,2.1,0.4c0,0,0,0,0,0
			C-107.4,193-106.9,192.3-106.9,191.8z M-117.3,190.6l0.5-0.5c0.3-0.3,0.6-0.6,1.1-1c0.8-0.7,1.7-1.4,1.7-1.4
			c0.4-0.3,0.5-1,0.2-1.4c-0.3-0.4-1-0.5-1.4-0.2c0,0-0.9,0.7-1.8,1.5c-0.4,0.4-0.9,0.8-1.2,1.1l-0.5,0.5c-0.4,0.4-0.4,1,0,1.4
			c0.2,0.2,0.4,0.3,0.7,0.3C-117.8,190.9-117.5,190.8-117.3,190.6z M-108.2,186.7c0.1-0.5-0.2-1.1-0.8-1.2c0,0-1-0.2-2-0.5
			c-0.5-0.1-1-0.3-1.4-0.4l-0.6-0.2c-0.5-0.2-1.1,0.1-1.3,0.6c-0.2,0.5,0.1,1.1,0.6,1.3l0.7,0.2c0.4,0.1,1,0.3,1.5,0.4
			c1.1,0.3,2.1,0.5,2.1,0.5c0.1,0,0.1,0,0.2,0C-108.7,187.5-108.3,187.2-108.2,186.7z M-118.8,183.7c0,0,1-0.6,2-1.1
			c0.5-0.3,1-0.5,1.4-0.7l0.7-0.3c0.5-0.2,0.7-0.8,0.5-1.3c-0.2-0.5-0.8-0.7-1.3-0.5l-0.7,0.3c-0.4,0.2-1,0.5-1.5,0.7
			c-1.1,0.6-2.1,1.2-2.1,1.2c-0.5,0.3-0.6,0.9-0.3,1.4c0.2,0.3,0.5,0.5,0.8,0.5C-119.1,183.8-119,183.8-118.8,183.7z M-108.4,182
			c0.2-0.5,0-1.1-0.5-1.3l-0.6-0.3c-0.4-0.2-0.8-0.4-1.3-0.7c-1-0.5-1.9-1.1-2-1.1c-0.5-0.3-1.1-0.1-1.4,0.3
			c-0.3,0.5-0.1,1.1,0.3,1.4c0,0,1,0.6,2.1,1.2c0.5,0.3,1,0.5,1.4,0.7l0.6,0.3c0.1,0.1,0.3,0.1,0.4,0.1
			C-108.9,182.6-108.5,182.3-108.4,182z M-118.6,176.5l0.7-0.2c0.4-0.1,1-0.3,1.6-0.4c1.2-0.3,2.3-0.5,2.3-0.5
			c0.5-0.1,0.9-0.6,0.8-1.1c-0.1-0.5-0.6-0.9-1.1-0.8c-0.1,0-1.2,0.2-2.5,0.5c-0.6,0.1-1.3,0.3-1.7,0.4l-0.7,0.2
			c-0.5,0.2-0.8,0.7-0.7,1.2c0.1,0.4,0.5,0.7,0.9,0.7C-118.8,176.6-118.7,176.6-118.6,176.5z M-107.5,177.3c0.3-0.4,0.2-1.1-0.2-1.4
			c0,0-0.9-0.7-1.8-1.4c-0.4-0.4-0.9-0.8-1.2-1l-0.5-0.5c-0.4-0.4-1-0.3-1.4,0.1c-0.4,0.4-0.3,1,0.1,1.4l0.6,0.5
			c0.3,0.3,0.8,0.7,1.3,1.1c0.9,0.8,1.9,1.4,1.9,1.5c0.2,0.1,0.4,0.2,0.6,0.2C-108,177.7-107.7,177.6-107.5,177.3z M-116.7,169.7
			c0,0,1.3-0.1,2.5-0.1c1.2,0,2.4,0,2.4,0c0.6,0,1-0.4,1-0.9c0-0.5-0.4-1-0.9-1c-0.1,0-1.3-0.1-2.5,0c-1.3,0-2.5,0.1-2.6,0.1
			c-0.5,0-1,0.5-0.9,1.1C-117.7,169.3-117.3,169.7-116.7,169.7C-116.8,169.7-116.8,169.7-116.7,169.7z M-105.7,172.8
			c0.4-0.4,0.4-1,0-1.4c0,0-0.8-0.9-1.6-1.8c-0.8-0.9-1.5-1.8-1.5-1.9c-0.2-0.2-0.4-0.4-0.7-0.4c-0.3,0-0.6,0.1-0.8,0.3
			c-0.8,0.7-0.3,1.2,1.4,3.3c0.8,1,1.6,1.8,1.7,1.9c0.2,0.2,0.5,0.3,0.7,0.3C-106.1,173.1-105.9,173-105.7,172.8z M-107.4,163.6
			c0.1-0.5-0.2-1.1-0.7-1.2l-0.8-0.2c-0.5-0.1-1.1-0.3-1.8-0.4c-0.6-0.1-1.3-0.2-1.8-0.3l-0.8-0.1c-0.5-0.1-1,0.3-1.1,0.8
			c-0.1,0.5,0.3,1,0.8,1.1l0.8,0.1c0.5,0.1,1.1,0.2,1.7,0.3c0.6,0.1,1.2,0.3,1.6,0.4l0.8,0.2c0.1,0,0.2,0,0.3,0
			C-107.9,164.3-107.5,164-107.4,163.6z M-103.2,168.8c0.5-0.3,0.6-0.9,0.3-1.4c0,0-0.6-1-1.2-2c-0.5-1-1-2.2-1-2.2
			c-0.2-0.5-0.8-0.7-1.3-0.5c-0.5,0.2-0.7,0.8-0.5,1.3c0,0,0.5,1.2,1.1,2.3c0.6,1.1,1.2,2.1,1.3,2.2c0.2,0.3,0.5,0.5,0.8,0.5
			C-103.5,169-103.3,168.9-103.2,168.8z M-102.7,159.7c0.3-0.5,0.2-1.1-0.3-1.4c0,0-1.1-0.7-2.3-1.3c-0.7-0.4-1.4-0.7-1.7-0.8
			l-0.8-0.3c-0.5-0.2-1.1,0-1.3,0.5c-0.2,0.5,0,1.1,0.5,1.3l0.8,0.3c0.5,0.2,1.1,0.5,1.6,0.7c1.1,0.6,2.1,1.2,2.2,1.2
			c0.2,0.1,0.3,0.2,0.5,0.2C-103.2,160.1-102.9,160-102.7,159.7z M-100.1,165.9c0.5-0.2,0.8-0.7,0.6-1.2c0,0-0.4-1.1-0.6-2.3
			c-0.2-1.1-0.4-2.4-0.4-2.4c-0.1-0.5-0.6-0.9-1.1-0.9c-0.5,0.1-0.9,0.6-0.9,1.1c0,0.1,0.2,1.3,0.4,2.5c0.3,1.3,0.6,2.4,0.6,2.5
			c0.1,0.4,0.5,0.7,0.9,0.7C-100.3,166-100.2,165.9-100.1,165.9z M-97.1,157.2c0.4-0.4,0.5-1,0.1-1.4c0,0-0.9-1-1.8-1.9
			c-1-0.9-2-1.8-2-1.8c-0.4-0.3-1-0.3-1.4,0.2c-0.3,0.4-0.3,1,0.2,1.4c0,0,1,0.8,1.9,1.7c0.9,0.9,1.7,1.8,1.7,1.8
			c0.2,0.2,0.5,0.3,0.7,0.3C-97.5,157.5-97.3,157.4-97.1,157.2z M-96.4,164c0.5,0,1-0.5,1-1c0,0,0-1.2,0.1-2.4
			c0.1-1.2,0.3-2.4,0.3-2.4c0-0.3,0-0.6-0.2-0.8c-0.2-0.2-0.4-0.3-0.7-0.4c-1.1-0.1-1.1,0.7-1.3,3.4c-0.1,1.3-0.1,2.5-0.1,2.6
			C-97.4,163.5-96.9,164-96.4,164C-96.4,164-96.4,164-96.4,164z M-91.1,156.3c0.5-0.3,0.7-0.9,0.4-1.3c0,0-0.6-1.1-1.3-2.3
			c-0.7-1.1-1.4-2.2-1.5-2.2c-0.3-0.4-0.9-0.5-1.4-0.2c-0.4,0.3-0.5,0.9-0.2,1.4c0,0,0.8,1.1,1.4,2.1c0.7,1.1,1.3,2.2,1.3,2.2
			c0.2,0.3,0.5,0.5,0.9,0.5C-91.4,156.4-91.2,156.3-91.1,156.3z M-90.7,162.2c0,0,0.3-1.2,0.7-2.3c0.4-1.1,0.8-2.3,0.8-2.3
			c0.2-0.5,0-1.1-0.6-1.3c-0.5-0.2-1.1,0-1.3,0.6c0,0-0.5,1.2-0.9,2.4c-0.4,1.2-0.7,2.4-0.7,2.4c-0.1,0.5,0.2,1.1,0.7,1.2
			c0.1,0,0.2,0,0.2,0C-91.2,162.9-90.8,162.6-90.7,162.2z M-85.2,156.4c0.5-0.1,0.8-0.5,0.8-1c0-0.4-0.8-2.3-1-2.7
			c-0.5-1.2-1-2.4-1-2.4c-0.2-0.5-0.8-0.7-1.3-0.5c-0.5,0.2-0.7,0.8-0.5,1.3c0,0,0.5,1.2,1,2.3c0.5,1.1,0.9,2.3,0.9,2.3
			c0.1,0.4,0.5,0.7,0.9,0.7C-85.3,156.4-85.2,156.4-85.2,156.4z M-85.5,162.2c0.1-0.1,0.5-1.1,1.1-2.1c0.5-1,1.1-2,1.2-2.1
			c0.2-0.3,0.2-0.7,0-1l-0.9,0.5l0,0L-85,157c-0.1,0.2-0.7,1.2-1.2,2.2c-1.2,2.3-1.2,2.5-1.2,2.7c0,0.5,0.4,1,1,1
			C-86.1,162.8-85.7,162.5-85.5,162.2z M-78.9,157.3c0.5-0.1,0.8-0.7,0.7-1.2l-0.6-2.4c-0.3-1.2-0.7-2.4-0.7-2.4
			c-0.2-0.5-0.7-0.8-1.2-0.6s-0.8,0.7-0.6,1.2c0,0,0.4,1.2,0.7,2.3l0.6,2.4c0.1,0.4,0.5,0.7,1,0.7C-79.1,157.3-79,157.3-78.9,157.3z
			 M-80.1,162.9c0,0,0.6-1,1.3-2c0.6-0.9,1.2-1.7,1.4-1.9c0.2-0.3,0.3-0.7,0.1-1.1l-0.9,0.4l-0.8-0.6c-0.1,0.2-0.8,1.1-1.4,1.9
			c-0.7,1-1.4,2-1.4,2c-0.3,0.5-0.2,1.1,0.3,1.4c0.2,0.1,0.3,0.2,0.5,0.2C-80.6,163.3-80.3,163.1-80.1,162.9z M-73,158.7
			c0.5-0.1,0.9-0.6,0.8-1.2l-1-4.7c-0.1-0.5-0.6-0.9-1.2-0.8c-0.5,0.1-0.9,0.6-0.8,1.2l1,4.6c0.1,0.5,0.5,0.8,1,0.8
			C-73.1,158.7-73,158.7-73,158.7z M-74.5,163.9c0,0,0.7-0.9,1.5-1.8l1.5-1.8c0.4-0.4,0.3-1-0.1-1.4c-0.4-0.4-1-0.3-1.4,0.1
			l-1.5,1.8c-0.8,0.9-1.5,1.8-1.5,1.8c-0.3,0.4-0.3,1.1,0.2,1.4c0.2,0.1,0.4,0.2,0.6,0.2C-75,164.3-74.7,164.2-74.5,163.9z
			 M-67.1,160.4c0.5-0.1,0.9-0.6,0.8-1.2l-0.8-4.5c-0.1-0.5-0.6-0.9-1.2-0.8c-0.5,0.1-0.9,0.6-0.8,1.2l0.8,4.5
			c0.1,0.5,0.5,0.8,1,0.8C-67.2,160.4-67.2,160.4-67.1,160.4z M-68.9,165.3l3.1-3.2c0.4-0.4,0.4-1,0-1.4c-0.4-0.4-1-0.4-1.4,0
			l-3.1,3.2c-0.4,0.4-0.4,1,0,1.4c0.2,0.2,0.4,0.3,0.7,0.3C-69.3,165.6-69.1,165.5-68.9,165.3z M-61.3,162.3
			c0.5-0.1,0.9-0.6,0.8-1.1l-0.8-4.2c-0.1-0.5-0.6-0.9-1.1-0.8c-0.5,0.1-0.9,0.6-0.8,1.1l0.8,4.2c0.1,0.5,0.5,0.8,1,0.8
			C-61.4,162.4-61.3,162.3-61.3,162.3z M-55.4,163.9c0.5-0.1,0.8-0.6,0.7-1.1l-0.7-4c-0.1-0.5-0.6-0.8-1.1-0.7
			c-0.5,0.1-0.8,0.6-0.7,1.1l0.7,4c0.1,0.4,0.5,0.8,0.9,0.8C-55.5,163.9-55.5,163.9-55.4,163.9z M-63.1,166.8l3.1-2.9
			c0.4-0.4,0.4-1,0.1-1.4c-0.4-0.4-1-0.4-1.4-0.1l-3.1,2.9c-0.4,0.4-0.4,1,0,1.4c0.2,0.2,0.5,0.3,0.7,0.3
			C-63.5,167.1-63.3,167-63.1,166.8z M-57.1,168.8l3.1-2.9c0.4-0.4,0.4-1,0.1-1.4c-0.4-0.4-1-0.4-1.4-0.1l-3.1,2.9
			c-0.4,0.4-0.4,1,0,1.4c0.2,0.2,0.5,0.3,0.7,0.3C-57.5,169.1-57.3,169-57.1,168.8z M-49.6,166.3c0.5-0.2,0.8-0.7,0.7-1.2
			c0,0-0.3-0.8-0.5-1.7l-0.5-1.8c-0.1-0.5-0.7-0.8-1.2-0.7s-0.8,0.7-0.7,1.2l0.5,1.8c0.2,0.9,0.5,1.8,0.5,1.8
			c0.1,0.4,0.5,0.7,0.9,0.7C-49.8,166.4-49.7,166.4-49.6,166.3z M-51.3,170.9l2.8-2.2c0.4-0.3,0.5-1,0.2-1.4c-0.3-0.4-1-0.5-1.4-0.2
			l-2.9,2.2c-0.4,0.3-0.5,1-0.2,1.4c0.2,0.2,0.5,0.4,0.8,0.4C-51.7,171.1-51.5,171.1-51.3,170.9z M-45.1,171.2l2.6-2
			c0.4-0.3,0.5-0.9,0.2-1.4c-0.3-0.4-0.9-0.5-1.4-0.2l-2.6,2c-0.4,0.3-0.5,0.9-0.2,1.4c0.2,0.3,0.5,0.4,0.8,0.4
			C-45.5,171.4-45.3,171.3-45.1,171.2z M-37.2,167.2l0-0.4l-0.3-0.3c-0.1-0.1-0.5-0.5-0.8-1c-0.4-0.4-0.7-1-0.7-1.1
			c-0.2-0.4-0.7-0.6-1.1-0.4c-0.3,0.1-0.5,0.3-0.7,0.6c-0.1,0.3-0.1,0.6,0.1,0.9c0.1,0.2,0.5,0.8,0.9,1.3c0.4,0.6,0.9,1,1,1.2
			c0.2,0.2,0.4,0.3,0.7,0.3C-37.7,168.2-37.2,167.7-37.2,167.2z M-43.2,166.2l0-0.4l-0.3-0.3c-0.1-0.1-0.5-0.5-0.8-1
			c-0.4-0.4-0.7-1-0.7-1.1c-0.2-0.4-0.7-0.6-1.1-0.4c-0.3,0.1-0.5,0.3-0.7,0.6c-0.1,0.3-0.1,0.6,0.1,0.9c0.1,0.2,0.5,0.8,0.9,1.3
			c0.4,0.6,0.9,1,1,1.2c0.2,0.2,0.4,0.3,0.7,0.3C-43.7,167.2-43.2,166.7-43.2,166.2z M-38.4,171.6l1.2-1c0.3-0.2,0.6-0.5,0.8-0.7
			l0.3-0.3c0.4-0.4,0.4-1,0-1.4c-0.4-0.4-1-0.4-1.4,0l-0.3,0.3c-0.2,0.2-0.4,0.4-0.7,0.6l-1.1,1c-0.4,0.3-0.5,1-0.1,1.4
			c0.2,0.2,0.5,0.4,0.8,0.4C-38.9,171.8-38.6,171.8-38.4,171.6z M-31.2,169.8l0.2-0.5c0.1-0.3,0.2-0.7,0.3-1.1
			c0-0.3,0.1-0.5,0.1-0.7l0-0.2c0-0.3,0-0.5,0-0.6c-0.1-0.5-0.5-0.9-1.1-0.9c-0.5,0-0.9,0.5-0.9,1.1c0,0,0,0.1,0,0.2l0,0.2
			c0,0.2,0,0.4-0.1,0.5c-0.1,0.3-0.1,0.6-0.2,0.9l-0.2,0.4c-0.2,0.5,0.1,1.1,0.6,1.3c0.1,0,0.2,0.1,0.4,0.1
			C-31.7,170.5-31.4,170.2-31.2,169.8z M-36,165.3c0,0,0.5,0.4,1.1,0.7c0.5,0.3,1.1,0.4,1.1,0.5c0.5,0.2,1.1-0.1,1.2-0.6
			c0.2-0.5-0.1-1.1-0.6-1.2c0,0-0.4-0.1-0.8-0.3c-0.4-0.2-0.7-0.5-0.7-0.5c-0.4-0.3-1-0.3-1.4,0.1c-0.1,0.2-0.2,0.4-0.2,0.5
			C-36.4,164.8-36.3,165.1-36,165.3z"/>
	</g>
</g>
<g>
	<path class="st0" d="M-34.1,179c0,12-20.3,22.1-45.1,22.1s-45-10.1-45-22.1l0.1-24c0-11,20.1-18.2,44.9-18.2
		c24.9,0,44.9,7.2,44.9,18.2L-34.1,179z M-122.3,154.2c0.5,0.5,1.2,1.1,2.2,1.9c0.5,0.3,1.1,0.7,1.8,1.1c0.7,0.4,1.4,0.7,2.2,1.2
		c0.8,0.4,1.6,0.8,2.6,1.1c0.9,0.3,1.9,0.7,2.9,1.1c2,0.7,4.3,1.3,6.7,1.9c2.4,0.6,5,1,7.6,1.4c2.7,0.3,5.4,0.7,8.2,0.8
		c2.8,0.2,5.7,0.3,8.6,0.3c2.9,0,5.7-0.1,8.6-0.3c2.8-0.1,5.6-0.5,8.3-0.8c2.7-0.4,5.2-0.8,7.6-1.4c2.4-0.5,4.7-1.2,6.7-1.9
		c1-0.3,2-0.7,2.9-1.1c0.9-0.4,1.8-0.8,2.5-1.2c0.8-0.4,1.5-0.8,2.2-1.2c0.6-0.4,1.2-0.8,1.8-1.1c1-0.8,1.8-1.4,2.2-1.9
		c0.5-0.5,0.7-0.7,0.7-0.7s-0.3,0.2-0.8,0.6c-0.3,0.2-0.6,0.5-1,0.7c-0.4,0.3-0.9,0.6-1.4,0.9c-0.5,0.3-1.2,0.6-1.8,1
		c-0.7,0.3-1.4,0.6-2.2,1c-0.8,0.3-1.7,0.6-2.6,0.9c-0.9,0.3-1.9,0.6-2.9,0.9c-2,0.5-4.3,1.1-6.7,1.5c-2.4,0.5-4.9,0.8-7.6,1.1
		c-2.6,0.3-5.4,0.5-8.1,0.6c-2.8,0.2-5.6,0.2-8.4,0.2c-5.7,0-11.3-0.3-16.6-0.9c-2.6-0.3-5.2-0.7-7.6-1.1c-0.6-0.1-1.2-0.2-1.8-0.3
		c-0.6-0.1-1.1-0.3-1.7-0.4c-1.1-0.2-2.2-0.5-3.2-0.8c-1-0.3-2-0.6-2.9-0.9c-0.9-0.3-1.8-0.6-2.6-0.9c-0.8-0.3-1.5-0.6-2.2-1
		c-0.7-0.3-1.3-0.7-1.8-0.9C-120.8,155.1-121.7,154.6-122.3,154.2c-0.5-0.5-0.7-0.7-0.7-0.7S-122.7,153.8-122.3,154.2z"/>
	<g class="st0">
		<line class="st6" x1="-108" y1="127" x2="-120" y2="139"/>
		<line class="st6" x1="-107" y1="128" x2="-119" y2="140"/>
		<line class="st6" x1="-106" y1="129" x2="-118" y2="141"/>
		<line class="st6" x1="-105" y1="130" x2="-117" y2="142"/>
		<line class="st6" x1="-104" y1="131" x2="-116" y2="143"/>
		<line class="st6" x1="-103" y1="132" x2="-115" y2="144"/>
		<line class="st6" x1="-109" y1="126" x2="-121" y2="138"/>
		<line class="st6" x1="-110" y1="125" x2="-122" y2="137"/>
		<line class="st6" x1="-111" y1="124" x2="-123" y2="136"/>
		<line class="st6" x1="-112" y1="123" x2="-124" y2="135"/>
		<line class="st6" x1="-113" y1="122" x2="-125" y2="134"/>
	</g>
	<rect x="-122" y="159" class="st0" width="86" height="27"/>
	<g class="st0">
		<g class="st1">
			<defs>
				<path id="SVGID_1_" d="M-122.6,156c0,11.7,0,16.9,0,25.2c14.9,26.4,76.9,20.4,86.7,0.8c0-9.9-0.1-15.2-0.1-25.7
					C-54.8,170.3-103,170.8-122.6,156z"/>
			</defs>
			<clipPath id="SVGID_2_">
				<use xlink:href="#SVGID_1_"  style="overflow:visible;"/>
			</clipPath>
			<g class="st7">
				<path class="st8" d="M-50.5,159.3c-0.2,0-0.4,0-0.6,0c-0.3,0-0.7,0.4-0.9,0.6c-0.5,0.4-1,0.8-1.5,1.2c-1,0.8-2,1.6-3,2.4
					c-2.1,1.7-4.3,3.3-6.4,5c-4.1,3.3-8.2,6.6-12.2,10.1c-4,3.4-8,6.9-11.9,10.5c-1.9,1.7-3.8,3.5-5.7,5.2c-0.9,0.9-1.9,1.8-2.8,2.6
					c-0.5,0.4-0.9,0.9-1.4,1.3c-0.4,0.4-1,0-1.4,0.4"/>
				<path class="st8" d="M-54.4,159.6c-2.1,0.5-3.8,2.2-5.5,3.5c-2.1,1.5-4.1,3.1-6.2,4.6c-4.2,3.2-8.4,6.4-12.4,9.8
					c-8,6.7-15.5,13.9-23.2,20.9"/>
				<path class="st8" d="M-58.5,159.7c-4.2,2.3-8.2,5.2-12.1,8.1c-4,2.9-7.9,6-11.8,9.1c-7.9,6.5-15.3,13.6-22.8,20.5"/>
				<path class="st8" d="M-47.7,159c-3.6,3.4-7.4,6.4-11.2,9.5c-3.9,3.2-7.7,6.6-11.6,9.9c-7.9,6.7-15.3,13.8-22.9,20.7"/>
				<path class="st8" d="M-63.2,160.2c-8.4,4.9-16.3,10.7-23.9,16.8c-3.9,3.2-7.6,6.5-11.4,9.9c-3.6,3.2-6.7,6.8-10.5,9.9"/>
				<path class="st8" d="M-44.6,158.5c-2.9,3.6-6.7,6.6-10.1,9.6c-3.8,3.3-7.6,6.7-11.3,10c-7.8,6.9-15.4,14.1-23.1,21.1"/>
				<path class="st8" d="M-41.5,157.9c-6.4,7.7-14,14.4-21.3,21.1c-3.9,3.6-7.7,7.2-11.6,10.8c-1.9,1.8-3.9,3.6-5.8,5.4
					c-1,0.9-1.9,1.8-2.9,2.7c-0.6,0.6-1.5,1.9-2.5,1.7"/>
				<path class="st8" d="M-35.8,156.2c-1.5,4.3-4,8.1-6.6,11.8c-2.9,4-6.1,7.8-9.5,11.4c-3.4,3.6-6.8,7.2-10.2,10.7
					c-1.7,1.7-3.5,3.4-5.3,5.1c-0.8,0.8-1.5,1.6-2.2,2.4c-0.6,0.6-1.9,1.4-1.9,2.2"/>
				<path class="st8" d="M-66.7,160.2c-0.9,0-1.6,0.4-2.3,0.9c-0.9,0.6-1.9,1.2-2.9,1.7c-2.1,1.3-4.2,2.6-6.3,4
					c-4.1,2.7-7.9,5.7-11.7,8.7c-7.8,6.3-15.1,13.2-22.1,20.5"/>
				<path class="st8" d="M-71.2,160.3c-1.9-0.1-3.5,1.5-5,2.4c-2,1.1-4,2.3-5.9,3.6c-4,2.6-7.8,5.6-11.5,8.6
					c-7.7,6.2-14.6,13.2-21.3,20.4"/>
				<path class="st8" d="M-37.3,156.5c-0.6,2.1-2,4-3.3,5.8c-1.4,2-2.9,3.9-4.4,5.7c-3.2,3.8-6.6,7.3-10.1,10.8
					c-3.7,3.7-7.3,7.4-11,11.1c-1.8,1.8-3.6,3.7-5.5,5.4c-0.9,0.8-1.8,1.6-2.6,2.5c-0.8,0.8-1.4,1.8-2.6,1.8"/>
				<path class="st8" d="M-39.5,157.6c-1,2-2.5,3.8-4,5.5c-1.6,1.8-3.2,3.7-4.9,5.5c-3.5,3.7-7.2,7.1-10.9,10.7
					c-3.7,3.6-7.4,7.2-11.1,10.8c-1.8,1.8-3.7,3.5-5.5,5.3c-0.9,0.9-1.9,1.8-2.8,2.6c-0.5,0.4-0.9,0.9-1.4,1.3
					c-0.4,0.3-0.8,0.2-1.2,0.3"/>
				<path class="st8" d="M-34.9,155.6c-1.5,8.7-7.5,16.2-13.1,22.8c-3.1,3.7-6.3,7.2-9.6,10.7c-1.7,1.8-3.4,3.5-5,5.3
					c-0.9,0.9-1.8,1.9-2.6,2.8c-0.4,0.5-0.9,0.9-1.3,1.4c-0.4,0.5-0.7,0.5-1.3,0.6"/>
				<path class="st8" d="M-75.9,160.5c-0.9,0-1.7,0.4-2.4,0.8c-0.9,0.6-1.9,1.1-2.8,1.6c-2,1.2-4,2.3-6,3.6c-4,2.6-7.8,5.7-11.5,8.7
					c-3.7,3-7.2,6.3-10.6,9.7c-1.6,1.6-3,3.4-4.6,5.1c-1.3,1.4-3.3,2.8-3.6,4.8"/>
				<path class="st8" d="M-35,157.9c0.4,0.8,0,1.5-0.2,2.3c-0.3,1-0.5,2-0.9,3c-0.7,1.9-1.5,3.7-2.5,5.4c-2.1,3.7-4.5,7.3-7.1,10.7
					c-2.6,3.4-5.3,6.7-8.2,9.9c-3,3.3-6.1,6.5-9,9.8"/>
				<path class="st8" d="M-80.3,160.5c-4,1.2-7.7,3.7-11.2,6c-3.8,2.5-7.3,5.2-10.7,8.1c-3.3,2.8-6.5,5.8-9.5,9
					c-1.5,1.6-2.9,3.3-4.3,5c-0.7,0.8-1.4,1.7-2.1,2.5c-0.6,0.7-1.6,1.5-1.5,2.5"/>
				<path class="st8" d="M-84.7,160.5c-1.8,0-3.4,1.3-4.9,2.1c-1.9,1-3.7,2.1-5.5,3.3c-3.5,2.3-6.8,4.8-9.9,7.6
					c-3.1,2.8-6.2,5.7-8.9,8.9c-1.4,1.6-2.8,3.3-4,5.1c-0.6,0.9-1.2,1.7-1.8,2.6c-0.3,0.4-0.6,0.7-0.9,1.1c-0.4,0.4-0.4,0.8-0.5,1.3
					"/>
				<path class="st8" d="M-89.4,160.5c-1.7,0.1-3.1,1.2-4.5,2c-1.7,0.9-3.4,1.9-5,3c-3.1,2.1-6.1,4.4-8.9,6.9
					c-2.8,2.6-5.5,5.4-7.9,8.3c-2.5,3-5.3,6.4-6.7,10.2"/>
				<path class="st8" d="M-35.2,162.6c-0.4,3.5-2.2,6.8-3.8,9.9c-1.7,3.1-3.6,6.1-5.7,8.9c-4.3,5.9-9.3,11.3-14.1,16.9"/>
				<path class="st8" d="M-93.9,160.3c-3.4,0.9-6.4,3.1-9.2,5c-2.9,2-5.6,4.2-8.2,6.6c-2.5,2.4-4.8,5.2-6.9,8c-1,1.4-2,2.9-2.9,4.4
					c-0.4,0.7-0.8,1.5-1.1,2.2c-0.4,0.8-0.4,1.7-0.9,2.4"/>
				<path class="st8" d="M-35.2,165.7c-0.1,3.1-1.7,6-3,8.7c-1.4,2.8-3,5.6-4.8,8.2c-3.5,5.4-7.6,10.5-11.9,15.3"/>
				<path class="st8" d="M-98,160.2c-3,0.8-5.7,2.6-8.2,4.4c-2.6,1.9-5.1,4-7.3,6.3c-4.3,4.5-8.5,9.5-9.6,15.7"/>
				<path class="st8" d="M-35.2,168.7c-0.3,2.7-1.4,5.3-2.5,7.8c-1.1,2.5-2.4,4.9-3.8,7.2c-2.9,4.8-6.4,9-9.6,13.5"/>
				<path class="st8" d="M-102.1,160c-2.6,0.6-4.9,2.3-7,3.8c-2.2,1.6-4.3,3.4-6.1,5.4c-1.9,2-3.6,4.2-5,6.6
					c-0.7,1.2-1.4,2.4-1.9,3.7c-0.5,1.2-1.2,2.9-0.7,4.2"/>
				<path class="st8" d="M-35.2,171.7c-0.3,4.6-2.8,9.1-4.9,13.1c-2.2,4.1-4.9,7.9-7.6,11.7"/>
				<path class="st8" d="M-106,159.7c-2.3,0.6-4.2,2.1-6,3.5c-1.7,1.4-3.4,2.9-4.8,4.5c-1.5,1.6-2.8,3.4-3.8,5.3
					c-1.1,2-2.5,4.5-2.4,6.8"/>
				<path class="st8" d="M-35.2,175.1c-0.5,3.7-2.1,7.4-3.7,10.8c-1.7,3.5-3.7,6.7-5.7,10"/>
				<path class="st8" d="M-109.5,159.4c-3.4,1.2-6.4,4.1-8.7,6.9c-1.2,1.4-2.2,2.9-3,4.5c-0.4,0.8-0.8,1.6-1.1,2.4
					c-0.3,0.9-0.9,1.9-0.8,2.9"/>
				<path class="st8" d="M-35.2,178.4c-0.5,3-1.5,5.9-2.7,8.7c-1.2,2.7-2.3,5.5-4.1,7.9"/>
				<path class="st8" d="M-113.3,159.1c-2.4,1.5-4.5,3.5-6.2,5.8c-1.6,2.2-3.5,5.3-3.5,8.1"/>
				<path class="st8" d="M-116.3,158.8c-1.8,1.3-3.3,2.9-4.5,4.8c-1.1,1.8-2.3,4.1-2.3,6.3"/>
				<path class="st8" d="M-35.2,181.5c-0.4,4.4-2.5,8.7-4.3,12.6"/>
				<path class="st8" d="M-118.5,158.2c-2.3,1.9-4.6,5.3-4.6,8.4"/>
				<path class="st8" d="M-35.2,184.5c-0.1,3-1.5,5.9-2.4,8.8"/>
				<path class="st8" d="M-120.7,157.8c-1.1,1.8-2.3,3.5-2.4,5.8"/>
				<path class="st8" d="M-121.9,156.5c-0.4,1.3-1.2,2.5-1.2,4"/>
				<path class="st8" d="M-35.2,188.2c-0.1,1.4-0.6,2.6-0.9,4"/>
				<path class="st8" d="M-35,189.2c0.2,0.4,0.1,0.9,0.1,1.4"/>
				<path class="st8" d="M-35,176.2c0.3,0.4,0.1,0.9,0.1,1.4"/>
				<path class="st8" d="M-35,173.1c0.3,0.4,0.1,0.9,0.1,1.4"/>
				<path class="st8" d="M-35,186c0.3,0.4,0.1,0.8,0.1,1.2"/>
				<path class="st8" d="M-35,179.3c0.3,0.4,0.1,0.8,0.1,1.2"/>
				<path class="st8" d="M-35,182.7c0.3,0.4,0.1,0.8,0.1,1.2"/>
				<path class="st8" d="M-35,160.9c0.3,0.3,0.1,0.7,0.1,1.1"/>
				<path class="st8" d="M-35,170.1c0.3,0.3,0.1,0.7,0.1,1.1"/>
				<path class="st8" d="M-35,164c0.3,0.3,0.1,0.7,0.1,1.1"/>
				<path class="st8" d="M-35,167c0.3,0.3,0.1,0.7,0.1,1.1"/>
			</g>
		</g>
	</g>
	<path d="M-34.1,179c0,12-20.3,22.1-45.1,22.1s-45-10.1-45-22.1l0.1-24c0-11,20.1-18.2,44.9-18.2c24.9,0,44.9,7.2,44.9,18.2
		L-34.1,179z M-122.3,154.2c0.5,0.5,1.2,1.1,2.2,1.9c0.5,0.3,1.1,0.7,1.8,1.1c0.7,0.4,1.4,0.7,2.2,1.2c0.8,0.4,1.6,0.8,2.6,1.1
		c0.9,0.3,1.9,0.7,2.9,1.1c2,0.7,4.3,1.3,6.7,1.9c2.4,0.6,5,1,7.6,1.4c2.7,0.3,5.4,0.7,8.2,0.8c2.8,0.2,5.7,0.3,8.6,0.3
		c2.9,0,5.7-0.1,8.6-0.3c2.8-0.1,5.6-0.5,8.3-0.8c2.7-0.4,5.2-0.8,7.6-1.4c2.4-0.5,4.7-1.2,6.7-1.9c1-0.3,2-0.7,2.9-1.1
		c0.9-0.4,1.8-0.8,2.5-1.2c0.8-0.4,1.5-0.8,2.2-1.2c0.6-0.4,1.2-0.8,1.8-1.1c1-0.8,1.8-1.4,2.2-1.9c0.5-0.5,0.7-0.7,0.7-0.7
		s-0.3,0.2-0.8,0.6c-0.3,0.2-0.6,0.5-1,0.7c-0.4,0.3-0.9,0.6-1.4,0.9c-0.5,0.3-1.2,0.6-1.8,1c-0.7,0.3-1.4,0.6-2.2,1
		c-0.8,0.3-1.7,0.6-2.6,0.9c-0.9,0.3-1.9,0.6-2.9,0.9c-2,0.5-4.3,1.1-6.7,1.5c-2.4,0.5-4.9,0.8-7.6,1.1c-2.6,0.3-5.4,0.5-8.1,0.6
		c-2.8,0.2-5.6,0.2-8.4,0.2c-5.7,0-11.3-0.3-16.6-0.9c-2.6-0.3-5.2-0.7-7.6-1.1c-0.6-0.1-1.2-0.2-1.8-0.3c-0.6-0.1-1.1-0.3-1.7-0.4
		c-1.1-0.2-2.2-0.5-3.2-0.8c-1-0.3-2-0.6-2.9-0.9c-0.9-0.3-1.8-0.6-2.6-0.9c-0.8-0.3-1.5-0.6-2.2-1c-0.7-0.3-1.3-0.7-1.8-0.9
		C-120.8,155.1-121.7,154.6-122.3,154.2c-0.5-0.5-0.7-0.7-0.7-0.7S-122.7,153.8-122.3,154.2z M-75.3,178.3
		c-3.8,3.2-7.7,6.6-11.9,10.5l-1.1,1c-1.5,1.4-3.1,2.8-4.6,4.3c-0.9,0.9-1.9,1.8-2.8,2.7c-0.2,0.2-0.5,0.5-0.7,0.7
		c0.2,0,0.4,0.1,0.6,0.1c0.2-0.2,0.3-0.3,0.5-0.5c0.9-0.9,1.9-1.8,2.8-2.6c1.5-1.4,3.1-2.8,4.6-4.3l1.1-1c4.2-3.9,8.1-7.3,11.9-10.5
		c4.7-4,8.6-7.2,12.2-10.1c1.5-1.2,3.1-2.4,4.6-3.6c-0.4,0.1-0.7,0.1-1.1,0.2c-1.3,1-2.6,2-3.9,3C-66.7,171.1-70.6,174.3-75.3,178.3
		z M-78.6,177.3c-5.5,4.6-10.8,9.5-16,14.2c-1.8,1.7-3.6,3.4-5.5,5c0.2,0.1,0.4,0.1,0.6,0.2c1.8-1.6,3.5-3.2,5.3-4.8
		c5.2-4.7,10.5-9.6,16-14.2c3.6-3,7.5-6.1,12.4-9.8c0.9-0.7,1.8-1.3,2.7-2c-0.3,0-0.7,0.1-1,0.1c-0.7,0.5-1.3,1-2,1.5
		C-71.1,171.2-75,174.3-78.6,177.3z M-82.5,176.7c-6.3,5.1-12.4,10.8-18.2,16.2c-0.9,0.9-1.8,1.7-2.8,2.6c0.2,0.1,0.4,0.1,0.5,0.2
		c0.9-0.8,1.7-1.6,2.6-2.4c5.8-5.4,11.9-11.1,18.2-16.2c3.2-2.6,7.4-5.9,11.8-9.1c0.5-0.4,1.1-0.8,1.6-1.2c0.2-0.1,0.3-0.2,0.5-0.3
		c-0.3,0-0.7,0.1-1,0.1c-0.5,0.3-0.9,0.7-1.4,1C-75.2,170.8-79.4,174.1-82.5,176.7z M-59.1,168.3c-2.6,2.2-5.3,4.4-7.8,6.6
		c-1.3,1.1-2.5,2.2-3.8,3.3c-5.2,4.4-10.2,9.1-15.1,13.6c-2.2,2.1-4.6,4.2-6.9,6.3c0.2,0,0.4,0.1,0.6,0.1c2.2-2,4.4-4,6.6-6
		c4.9-4.5,9.9-9.2,15.1-13.6c1.3-1.1,2.5-2.2,3.8-3.3c2.5-2.2,5.2-4.4,7.8-6.6c0.8-0.7,1.6-1.3,2.4-2c1.2-1,2.4-2,3.6-3
		c-0.4,0.1-0.7,0.2-1.1,0.3c-0.9,0.8-1.9,1.5-2.8,2.3C-57.5,167-58.3,167.7-59.1,168.3z M-98.6,186.7c-1.5,1.3-2.9,2.7-4.3,4.1
		c-1.2,1.2-2.4,2.4-3.6,3.5c0.2,0.1,0.3,0.1,0.5,0.2c1.2-1.1,2.3-2.3,3.5-3.4c1.4-1.4,2.8-2.8,4.3-4.1c4-3.6,7.5-6.8,11.4-9.9
		c4.8-3.9,9.4-7.3,13.8-10.4c-0.3,0-0.6,0-0.9,0c-4.2,2.9-8.6,6.2-13.2,10C-91.1,179.9-94.7,183.2-98.6,186.7z M-54.9,168
		c-2.7,2.4-5.5,4.8-8.2,7.2c-1,0.9-2.1,1.9-3.1,2.8c-5,4.4-10,9-14.8,13.5c-2.5,2.4-5.2,4.8-7.8,7.2c0.2,0,0.4,0,0.7,0.1
		c2.5-2.3,5-4.6,7.4-6.9c4.8-4.4,9.8-9,14.7-13.4c1-0.9,2.1-1.9,3.1-2.8c2.7-2.4,5.4-4.8,8.2-7.2c0.5-0.5,1.1-0.9,1.6-1.4
		c1.8-1.5,3.6-3.1,5.3-4.7c-0.4,0.1-0.7,0.3-1.1,0.4c-1.5,1.4-3,2.7-4.5,4C-53.8,167-54.4,167.5-54.9,168z M-59.8,175.9
		c-1.1,1-2.1,1.9-3.2,2.9c-3.1,2.9-6.3,5.8-9.3,8.7l-2.3,2.2c-1.9,1.8-3.9,3.6-5.8,5.4c-1,0.9-1.9,1.8-2.9,2.7
		c-0.1,0.1-0.3,0.3-0.4,0.4c-0.2,0.2-0.5,0.5-0.7,0.7c0.2,0,0.5,0,0.7,0c0.1-0.1,0.3-0.3,0.4-0.4c0.1-0.2,0.3-0.3,0.4-0.4
		c1-0.9,1.9-1.8,2.9-2.7c1.9-1.8,3.9-3.6,5.8-5.4l2.3-2.2c3-2.8,6.2-5.8,9.3-8.6c1.1-1,2.1-2,3.2-2.9c5.5-5,11.1-10.1,16.1-15.8
		c-0.4,0.2-0.7,0.3-1.1,0.5C-49.3,166.3-54.6,171.2-59.8,175.9z M-52.1,179.2l-0.4,0.5c-3.2,3.4-6.5,6.9-9.8,10.2c-1,1-2,2-3,2.9
		c-0.7,0.7-1.5,1.4-2.2,2.1c-0.5,0.5-1,1-1.4,1.5c-0.3,0.3-0.5,0.6-0.8,0.9c-0.2,0.2-0.4,0.4-0.6,0.6c-0.2,0.2-0.4,0.4-0.6,0.5
		c0.3,0,0.6-0.1,0.9-0.1c0,0,0,0,0.1-0.1c0.3-0.2,0.5-0.4,0.7-0.6c0.3-0.3,0.5-0.6,0.8-0.9c0.4-0.5,0.9-1,1.4-1.5
		c0.7-0.7,1.5-1.4,2.2-2.1c1-0.9,2-1.9,3-2.9c3.3-3.4,6.6-6.9,9.8-10.3l0.4-0.5c3.3-3.5,6.6-7.4,9.5-11.4c2.2-2.9,4.2-6.4,6.2-10.4
		c0-0.5,0-0.9,0-1.4c-2,4.4-4.2,8.3-6.6,11.5C-45.5,171.9-48.8,175.7-52.1,179.2z M-109.4,193.1c0.2,0.1,0.3,0.2,0.5,0.2
		c6.7-6.7,13-12.5,19.2-17.5c4.2-3.4,8-6.3,11.7-8.7c0.1,0,0.1-0.1,0.2-0.1c-0.3,0-0.6,0-0.9,0c-3.5,2.4-7.2,5.1-11.3,8.4
		C-96.3,180.5-102.7,186.3-109.4,193.1z M-111.9,191.7c0.1,0.1,0.3,0.2,0.4,0.3c5.1-5.3,11.2-11.4,18-16.9c3.2-2.6,6.9-5.5,10.9-8.2
		c-0.3,0-0.6,0-0.8,0c-3.8,2.6-7.4,5.4-10.4,7.8C-100.6,180.3-106.8,186.4-111.9,191.7z M-40.7,162.2c-1.3,1.9-2.8,3.7-4.4,5.7
		c-3.2,3.8-6.7,7.4-10,10.8c-3.3,3.3-7.1,7.2-11,11.1c-0.5,0.5-1.1,1.1-1.6,1.6c-1.3,1.3-2.6,2.6-3.9,3.9c-0.4,0.3-0.7,0.7-1.1,1
		c-0.5,0.5-1,0.9-1.5,1.4c-0.2,0.2-0.4,0.4-0.5,0.6c-0.2,0.2-0.4,0.4-0.6,0.6c0.2,0,0.5,0,0.7,0c0.1-0.1,0.1-0.2,0.2-0.2
		c0.2-0.2,0.3-0.4,0.5-0.5c0.5-0.5,1-1,1.5-1.4c0.4-0.3,0.8-0.7,1.1-1c1.3-1.3,2.7-2.6,3.9-3.9c0.5-0.5,1.1-1.1,1.6-1.6
		c3.9-3.9,7.8-7.8,11-11.1c3.3-3.4,6.8-7,10.1-10.8c1.7-2,3.1-3.9,4.4-5.8c0.2-0.3,0.4-0.5,0.6-0.8c1-1.4,2.1-2.9,2.6-4.6
		c-0.2,0.2-0.5,0.3-0.7,0.5c-0.6,1.3-1.4,2.6-2.3,3.8C-40.4,161.6-40.6,161.9-40.7,162.2z M-44.4,163.8c-1.3,1.5-2.7,3.1-4.1,4.6
		c-2.8,3-5.9,5.9-8.8,8.7c-0.7,0.7-1.4,1.3-2.1,2c-2.8,2.7-5.5,5.4-8.2,8l-2.9,2.8c-1.8,1.8-3.6,3.5-5.5,5.3
		c-0.9,0.9-1.9,1.8-2.8,2.6c-0.4,0.4-0.8,0.8-1.2,1.2c0.2,0,0.5,0,0.7,0c0.3-0.3,0.6-0.5,0.9-0.8c0.9-0.9,1.8-1.8,2.8-2.6
		c1.9-1.8,3.7-3.5,5.5-5.3l2.9-2.8c2.7-2.6,5.5-5.4,8.2-8c0.7-0.7,1.4-1.3,2.1-2c2.9-2.8,6-5.7,8.8-8.7c1.4-1.5,2.8-3.1,4.1-4.6
		l0.8-0.9c1.3-1.4,2.5-2.9,3.4-4.5c-0.3,0.2-0.6,0.3-0.9,0.5c-0.9,1.3-1.9,2.5-2.9,3.7L-44.4,163.8z M-57.8,189
		c-1.1,1.2-2.2,2.3-3.3,3.5l-1.7,1.8c-0.9,0.9-1.8,1.9-2.6,2.8c-0.2,0.2-0.4,0.5-0.6,0.7c0.3,0,0.5-0.1,0.8-0.1
		c0.1-0.1,0.1-0.1,0.2-0.2c0.9-0.9,1.8-1.9,2.6-2.8l1.7-1.8c1.1-1.2,2.2-2.3,3.3-3.5c3.5-3.7,6.7-7.2,9.6-10.7
		c4.7-5.5,9.3-11.3,11.7-17.8c0-0.5,0-1,0-1.5c-2.2,6.8-7,12.9-12.1,18.9C-51.2,181.8-54.3,185.3-57.8,189z M-109.4,184.9
		c-1,1-1.9,2.1-2.8,3.1c-0.6,0.7-1.2,1.3-1.8,2c-0.1,0.1-0.2,0.2-0.3,0.3c0.1,0.1,0.3,0.2,0.4,0.3c0.1-0.1,0.2-0.2,0.2-0.2
		c0.6-0.7,1.2-1.3,1.8-2c0.9-1,1.8-2.1,2.8-3.1c3.5-3.6,7.1-6.8,10.6-9.7c4.2-3.4,7.7-6.2,11.5-8.7c0,0,0.1-0.1,0.1-0.1
		c-0.3,0-0.5,0-0.8-0.1c-3.6,2.4-7.1,5.1-11.1,8.4C-102.3,178-105.9,181.3-109.4,184.9z M-38.9,168.5c-1.9,3.5-4.2,7-7.1,10.6
		c-2.8,3.6-5.5,6.8-8.2,9.8c-1.3,1.4-2.6,2.8-3.8,4.1c-1.1,1.2-2.3,2.5-3.4,3.7c0.3-0.1,0.6-0.1,0.8-0.2c1-1.1,2-2.2,3-3.2
		c1.3-1.4,2.6-2.8,3.8-4.2c2.7-3,5.4-6.2,8.2-9.9c2.9-3.7,5.2-7.2,7.1-10.7c1-1.8,1.8-3.5,2.4-5.1c0-0.5,0-1,0-1.6
		c-0.1,0.3-0.2,0.7-0.3,1C-37,164.8-37.8,166.6-38.9,168.5z M-111.9,183.5c-1.5,1.6-2.9,3.3-4.3,5c-0.1,0.1-0.1,0.1-0.2,0.2
		c0.1,0.1,0.3,0.2,0.4,0.3c0.1-0.1,0.1-0.1,0.2-0.2c1.4-1.7,2.8-3.4,4.3-5c2.7-2.9,5.8-5.9,9.4-9c3.7-3.2,7.2-5.8,10.7-8.1l0.5-0.3
		c-0.3,0-0.5,0-0.8-0.1c-3.5,2.3-7,5-10.7,8.1C-106.1,177.6-109.2,180.6-111.9,183.5z M-114.2,182.2c-1.5,1.7-2.8,3.3-3.9,4.9
		c0.1,0.1,0.2,0.2,0.4,0.3c1.1-1.6,2.4-3.2,3.9-4.9c2.4-2.8,5.3-5.6,8.9-8.9c3-2.7,6.3-5.2,9.9-7.5c0.1,0,0.2-0.1,0.2-0.1
		c-0.2,0-0.5-0.1-0.7-0.1c-3.5,2.3-6.8,4.8-9.7,7.4C-108.9,176.6-111.7,179.4-114.2,182.2z M-108,172.2c-2.7,2.5-5.4,5.3-8,8.3
		c-1.1,1.4-2.5,3-3.7,4.8c0.1,0.1,0.2,0.3,0.3,0.4c1.3-1.8,2.6-3.5,3.8-4.9c2.5-3.1,5.2-5.8,7.9-8.3c2.8-2.5,5.8-4.8,8.9-6.9
		c0.2-0.1,0.4-0.2,0.6-0.3c-0.2,0-0.5-0.1-0.7-0.1c0,0-0.1,0-0.1,0.1C-102.2,167.3-105.2,169.7-108,172.2z M-44.9,181.3
		c-3.4,4.7-7.3,9.1-11,13.4c-0.3,0.3-0.6,0.7-0.9,1c0.3-0.1,0.6-0.2,0.9-0.3c0.1-0.1,0.2-0.3,0.3-0.4c3.7-4.3,7.6-8.7,11-13.4
		c2.3-3.2,4.2-6.1,5.8-9c1-1.9,2-3.8,2.7-5.7c0-0.5,0-1,0-1.5c-0.7,2.3-1.9,4.6-3.1,7C-40.7,175.2-42.6,178.1-44.9,181.3z
		 M-103.2,165.2c-3.2,2.2-5.8,4.4-8.2,6.7c-2.4,2.3-4.7,5-6.9,8c-1,1.4-1.9,2.7-2.6,4c0.1,0.1,0.2,0.3,0.3,0.4
		c0.8-1.3,1.6-2.7,2.7-4.1c2.2-3,4.5-5.7,6.9-8c2.3-2.3,5-4.4,8.1-6.6l0.2-0.2c0.3-0.2,0.7-0.5,1-0.7c-0.2,0-0.4-0.1-0.7-0.1
		c-0.2,0.2-0.4,0.3-0.7,0.5L-103.2,165.2z M-38.5,174.2c-1.4,2.8-3,5.5-4.8,8.2c-2.5,3.9-5.5,7.7-8.7,11.6c0.3-0.1,0.6-0.3,1-0.4
		c3-3.6,5.7-7.3,8.1-10.9c1.8-2.7,3.4-5.5,4.8-8.3l0.4-0.7c0.6-1.1,1.1-2.2,1.6-3.4c0-0.5,0-0.9,0-1.4c-0.5,1.6-1.3,3.2-2.1,4.6
		L-38.5,174.2z M-113.7,170.8c-3.3,3.4-6.5,7.2-8.3,11.6c0.1,0.2,0.2,0.3,0.3,0.5c1.8-4.4,5-8.2,8.4-11.7c2.3-2.4,4.8-4.6,7.3-6.3
		c0.4-0.3,0.8-0.6,1.2-0.9c-0.2-0.1-0.4-0.1-0.6-0.2c-0.3,0.2-0.6,0.4-0.9,0.6C-108.8,166.2-111.3,168.3-113.7,170.8z M-41.7,183.6
		c-1.8,3-3.9,5.8-5.9,8.6c0.3-0.2,0.7-0.3,1-0.5c1.9-2.5,3.7-5.1,5.4-7.8c1.4-2.4,2.7-4.8,3.8-7.3c0.5-1.2,1-2.3,1.5-3.5
		c0-0.5,0-1,0-1.5c-0.5,1.6-1.2,3.2-1.9,4.8C-39,178.8-40.3,181.2-41.7,183.6z M-122.8,181.4c0.2-0.6,0.5-1.1,0.7-1.6l0.1-0.2
		c0.5-1.1,1.1-2.3,1.9-3.7c1.5-2.4,3.2-4.5,5-6.5c1.8-2,3.9-3.8,6.1-5.4l0.5-0.3c0.3-0.2,0.5-0.4,0.8-0.6c-0.2-0.1-0.4-0.1-0.6-0.2
		c-0.2,0.1-0.3,0.2-0.5,0.4l-0.5,0.3c-2.2,1.6-4.3,3.5-6.2,5.5c-1.9,2-3.6,4.2-5,6.6c-0.9,1.4-1.5,2.6-2,3.7 M-43.3,189.7
		c0.4-0.2,0.7-0.5,1.1-0.7c0.8-1.3,1.6-2.6,2.3-4c1.3-2.3,2.8-5.2,3.9-8.3c0-0.6,0-1.1,0-1.7c-1,3.6-2.8,7.1-4.3,9.7
		C-41.3,186.4-42.3,188.1-43.3,189.7z M-117,167.6c-1.5,1.7-2.8,3.5-3.9,5.4c-0.6,1.1-1.3,2.3-1.8,3.7c0,0.6,0,1.2,0,1.8
		c0.4-1.9,1.4-3.8,2.2-5.3c1-1.8,2.3-3.6,3.8-5.3c1.4-1.5,3-3,4.8-4.5c0.5-0.4,1-0.8,1.5-1.2c-0.2-0.1-0.4-0.1-0.6-0.2
		c-0.4,0.3-0.8,0.6-1.2,1C-114,164.5-115.6,166-117,167.6z M-39.6,186.8c0.4-0.4,0.8-0.8,1.1-1.2c0.9-1.9,1.8-3.9,2.5-6
		c0-0.6,0-1.2,0-1.7c-0.7,2.7-1.9,5.4-3.1,7.9C-39.3,186.1-39.5,186.4-39.6,186.8z M-118.4,166.1c-1.2,1.4-2.2,2.9-3,4.5
		c-0.4,0.8-0.8,1.6-1.1,2.4c0,0.1-0.1,0.3-0.2,0.4c0,0.5,0,1,0,1.4c0.1-0.4,0.3-0.8,0.4-1.2c0.1-0.2,0.1-0.3,0.2-0.5
		c0.3-0.8,0.7-1.6,1-2.3c0.8-1.5,1.8-3,3-4.4c1.8-2.2,3.6-3.8,5.3-5c-0.2-0.1-0.4-0.1-0.5-0.2C-114.9,162.4-116.7,164-118.4,166.1z
		 M-36,182c0-0.3,0-0.7,0-1c-0.2,0.7-0.4,1.4-0.6,2.1C-36.4,182.7-36.2,182.4-36,182z M-119.7,164.7c-1.4,1.9-2.3,3.6-2.9,5.1
		c0,0.6,0,1.2,0,1.8c0.4-1.9,1.5-4.1,3.3-6.6c1.2-1.7,2.7-3.2,4.5-4.5c-0.2-0.1-0.3-0.2-0.5-0.2
		C-117.1,161.6-118.5,163.1-119.7,164.7z M-121,163.5c-0.7,1.2-1.3,2.3-1.7,3.2c0,0.6,0,1.2,0,1.8c0.3-1.4,1-3,2.1-4.7
		c1-1.6,2.3-3,3.7-4.1c-0.2-0.1-0.3-0.2-0.5-0.3C-118.7,160.5-120,161.9-121,163.5z M-122.6,163.5c0,0.6,0,1.1,0,1.7
		c0.5-2.4,2.3-4.9,4-6.5c-0.2-0.1-0.3-0.2-0.4-0.3C-120.4,159.7-121.8,161.5-122.6,163.5z M-120.5,157.9c0.1-0.1,0-0.3-0.1-0.3
		c-0.1-0.1-0.3,0-0.3,0.1l-0.2,0.3c-0.6,0.9-1.1,1.8-1.6,2.8c0,0.5,0,1.1,0,1.6c0.3-1.5,1.1-2.7,2-4.1L-120.5,157.9z M-123,159.2
		c0-0.4,0.5-0.8,0.7-1.3c0.2-0.4,0.4-0.8,0.6-1.3c-0.1-0.1-0.2-0.2-0.4-0.3c0,0-0.1,0-0.1,0c-0.1,0.4-0.4,0.9-0.6,1.3"/>
</g>
<g class="st0">
	<path class="st1" d="M-83,120.7c2.6,0,5.3,0,7.9,0c1.1,0.2,2.3,0.3,3.4,0.5c12.2,2,22.2,7.9,29.8,17.6c8.5,11,11.5,23.6,9.1,37.3
		c-3.1,17.7-16.5,32.3-33.8,37c-2.8,0.8-5.7,1.2-8.6,1.6c-2.6,0-5.3,0-7.9,0c-3-0.4-6-0.8-8.9-1.7c-16.7-5.2-27.5-16.1-32.6-32.8
		c-0.8-2.8-1.2-5.7-1.6-8.6c0-2.6,0-5.3,0-7.9c0.3-4,1.2-8,2.6-11.7c5.7-15.1,16.3-25,31.7-29.7C-88.9,121.5-86,121.1-83,120.7z
		 M-93.9,158.2C-93.9,158.2-93.9,158.2-93.9,158.2c-2.5,0-4.9,0-7.4,0c-0.5,0-1,0.1-1.5,0.4c-1.7,0.8-2.6,2.3-3.5,3.9
		c-2.1,3.8-3.6,7.9-4.8,12.1c-0.4,1.4-0.3,2.7,0.2,4c2.2,4.9,5.4,9.1,8.9,13.2c1,1.1,2.1,1.6,3.5,1.7c4.7,0.4,9.3,0,14-0.6
		c1.8-0.2,3-1,3.9-2.6c2.6-4.6,4.8-9.5,7.1-14.3c0.2-0.4,0.1-0.8-0.2-1.1c-0.7-0.8-1.4-1.6-2-2.4c-3.3-4.3-6.3-8.7-9.3-13.2
		c-0.5-0.7-1-1-1.9-1C-89.1,158.2-91.5,158.2-93.9,158.2z M-68.2,174.9c0-0.1,0-0.1,0-0.2c2.8,0,5.7,0,8.5,0c0.9,0,1.8-0.1,2.7-0.2
		c1.5-0.1,2.7-0.6,3.6-1.9c0.5-0.8,1.2-1.5,1.7-2.3c2.5-3.8,4.1-8,5.3-12.3c0.3-1.2,0.2-2.3-0.3-3.4c-2.4-4.9-5.8-9-9.5-13
		c-0.3-0.4-0.8-0.5-1.3-0.6c-3.1-0.7-6.2-0.7-9.4-0.9c-2.7-0.1-5.5,0.2-8.2,0.4c-0.4,0-1,0-1.3,0.5c-0.5,0.8-1,1.6-1.5,2.4
		c-2.5,4.4-4.6,9-6.7,13.6c-0.2,0.5-0.1,0.9,0.2,1.3c1.5,2.1,2.9,4.3,4.4,6.5c2.1,3,4.2,6,6.5,8.9c0.8,0.9,1.6,1.4,2.8,1.3
		C-69.8,174.8-69,174.9-68.2,174.9z M-82.7,213.5c3.1-0.1,6-0.6,8.9-1.4c0.5-0.2,1.1-0.3,1.4-0.8c1.7-2.5,3-5.1,3.7-8
		c0.1-0.5,0-0.8-0.5-1c-1.4-0.7-2.7-1.5-4-2.3c-2.9-1.9-6-3.6-8.3-6.4c-0.3-0.4-0.7-0.2-1-0.2c-5.9,1.3-11.8,1.5-17.7,0.7
		c-0.6-0.1-1,0-1.3,0.7c-1,2.4-1.9,4.7-2.8,7.1c-0.2,0.5-0.1,1,0.2,1.4c0.8,1.2,1.7,2.3,2.7,3.2C-96,211.2-89.5,212.7-82.7,213.5z
		 M-51,187.9c0,0.8,0.1,1.6,0,2.5c-0.1,0.8,0.3,0.9,0.9,1c2.3,0.4,4.6-0.1,6.8-0.3c3-0.2,4.8-1.8,6-4.4c2.9-6.1,4.6-12.4,3.9-19.1
		c-0.3-3.3-1.4-6.4-3.1-9.3c-0.2-0.4-0.5-0.8-1-0.8c-2.3-0.2-4.5-0.4-6.8-0.4c-0.7,0-1,0.2-1.2,0.9c-0.4,1.6-0.9,3.2-1.4,4.7
		c-1.5,4-3.3,7.8-6.2,11c-0.5,0.6-0.8,1-0.2,1.7c0.5,0.6,0.7,1.4,0.9,2.2C-51.4,180.9-51,184.4-51,187.9z M-117.2,176.4
		c1.1-0.1,2.5,0.1,4-0.2c0.5-0.1,0.8-0.3,0.9-0.8c0.6-2.4,1.3-4.7,2.2-7c1.4-3.4,2.7-6.9,5.3-9.7c0.3-0.3,0.2-0.6,0-0.9
		c-0.6-0.8-0.9-1.6-1.2-2.6c-0.6-2-0.9-4.1-1-6.2c-0.1-2.2-0.4-4.4,0.2-6.6c0.2-0.6-0.2-0.6-0.6-0.5c-2.9,0.5-5.8,1-8.7,1.8
		c-0.7,0.2-1.2,0.5-1.7,1.1c-5.6,6.6-7.4,14.5-7.1,22.9c0.1,2.7,1,5.2,2.5,7.5c0.5,0.7,1,1.2,1.9,1.1
		C-119.5,176.4-118.5,176.4-117.2,176.4z M-68.2,139.2c3.5-0.1,6.8,0.1,10.1,0.7c0.5,0.1,0.8-0.1,1.1-0.5c1.2-2.3,2.4-4.6,3.5-6.9
		c0.2-0.3,0.3-0.6,0-0.9c-1.6-1.8-3-3.9-5.2-5c-7.3-3.6-15-5.6-23.2-4.2c-1.7,0.3-3.4,0.4-4.5,2c-1.4,1.9-2.4,3.9-3.1,6.1
		c-0.2,0.6-0.1,1,0.6,1.3c4.2,2.2,8.5,4.3,11.9,7.7c0.2,0.2,0.5,0.3,0.9,0.2C-73.4,139.3-70.7,139.1-68.2,139.2z M-69.1,212.5
		c0.4,0,0.8,0,1.1-0.1c11.1-2.9,19.9-9,26.6-18.3c0.3-0.4,0.5-0.8,0.6-1.2c0.3-1.2,0.1-1.4-1.2-1.2c-2.8,0.6-5.7,1-8.6,0.5
		c-0.7-0.1-1.2,0-1.6,0.7c-0.3,0.5-0.7,0.9-1.1,1.3c-3.6,3.6-8.1,6-12.6,8.2c-1.8-0.1-1.8,1.2-2.1,2.4c-0.7,2.4-1.8,4.5-3.1,6.5
		c-0.4,0.5-0.3,0.8,0.3,0.9C-70.3,212.3-69.7,212.5-69.1,212.5z M-116.6,142.1c-0.1,0.7,0.3,0.8,0.9,0.6c2.2-0.6,4.5-1.1,6.7-1.4
		c1.9-0.3,3.4-0.8,4.9-2.3c3.3-3.3,7.4-5.4,11.6-7.5c0.3-0.1,0.5-0.2,0.8-0.2c0.7,0,0.9-0.4,1.1-0.9c0.6-2.3,1.7-4.4,3.1-6.3
		c0.3-0.4,1.1-0.9,0.8-1.3c-0.3-0.6-1.1-0.1-1.7,0c-11.3,2.4-20.5,8.2-27.5,17.4C-116.2,140.6-116.5,141.2-116.6,142.1z
		 M-101.8,207.6c-0.8-0.9-1.8-1.7-2.4-2.8c-0.8-1.5-2-2.3-3.5-3c-1.8-0.9-3.5-2.1-5.2-3.1C-109.8,202.3-106.1,205.2-101.8,207.6z
		 M-121.1,186.2c-0.6-2.8-1-5.5-0.9-8.4c0-0.3,0-0.6-0.2-0.8c-1.1-1.1-1.7-2.5-2.4-3.9C-124.2,177.7-123,182-121.1,186.2z
		 M-33.5,162.5c-0.4-3.9-1.3-7.7-2.8-11.3c0.2,1.8,0.1,3.6,0.1,5.4c0,0.2,0.1,0.5,0.2,0.7C-34.9,159-34.2,160.7-33.5,162.5z
		 M-47.1,134.8c-2-2.1-4.2-3.9-6.7-5.4c0.7,0.9,1.2,2,2.1,2.6C-50.1,132.9-48.6,133.8-47.1,134.8z"/>
</g>
<g class="st0">
	<path class="st1" d="M-68.7,136.4c3.5,4.4,5.9,9.1,7.7,14.1c0.7,1.9,1.1,3.8,1.8,5.7c0.5,1.3,0.1,2.1-1,2.9
		c-8,6.1-15.1,13.2-20.8,21.5c-4.4,6.5-7.7,13.5-9.2,21.2c-0.3,1.5-0.4,2.9-0.5,4.4c-0.1,0.9-0.3,1.4-1.3,1.5
		c-5.5,0.4-10.7-0.6-15.7-3c-0.4-0.2-0.8-1-0.8-1.6c-0.2-4.8,1.1-9.3,2.6-13.7c4.2-11.7,10.8-22,18.5-31.7
		c5.7-7.1,11.9-13.8,17.8-20.6C-69.3,136.9-69,136.7-68.7,136.4z M-109.8,197.4c1-6.1,3.2-11.8,5.9-17.3
		c6.3-12.6,14.7-23.7,23.8-34.2c3.2-3.7,6.7-7.3,10.1-11.1c-2.3-2.6-5-4.7-8-6.5c-1.3-0.8-2.4-0.7-3.7-0.1
		c-11.1,5.6-20.6,13.1-28,23.2c-8.5,11.6-12,24.6-10.8,38.9c0.1,0.7,0.1,1.5,0.4,2.1c2.5,4.3,5.8,8,9.7,11.7
		C-110.1,201.6-110.2,199.5-109.8,197.4z M-83.2,190.5c3.9,2.8,7.8,5.6,11.7,8.3c4.6,3,9.5,5.3,14.9,6.5c4.1,0.9,8,0.4,11-3.1
		c2.1-2.6,4.4-5.1,6.4-7.8c1.6-2.2,2.8-4.8,4.3-7.5c-7.6,0.9-14.6-0.4-21.5-2.4c-6.8-2-13.4-4.4-20.5-6.8c-2.4,3.7-4.9,7.7-7.5,11.8
		C-83.9,190-83.5,190.3-83.2,190.5z M-48.6,184.4c3.9,0.7,8,0.6,12,0.8c1.6,0.1,2.7-0.5,3.1-2.3c0.6-3,1.5-6,2-9
		c0.3-1.9,0.3-3.8,0.4-5.4c-2.8-0.5-5.4-0.7-7.7-1.5c-5.9-2.2-11.7-4.8-17.5-7.2c-0.8-0.4-1.4-0.4-2,0.2c-2.1,1.8-4.4,3.4-6.4,5.3
		c-3.6,3.4-7,6.9-10.8,10.7C-66.4,179.7-57.7,182.9-48.6,184.4z M-56,130.7c-8.4-8.5-18.8-11.5-30.5-10c-3,0.4-5.9,1.4-8.8,2.1
		c0,0.2,0.1,0.3,0.1,0.5c0.5,0,1.1,0,1.6,0c10.9-0.6,19.6,3.6,26.4,12c5,6.2,8,13.4,10,21c0.2,0.7,0.8,1.5,1.4,1.8
		c3.9,1.9,7.9,3.7,11.8,5.4c1.6,0.7,3.4,1.2,5.5,2C-41.8,152.1-46.6,140.2-56,130.7z M-83.3,126.1c-4.6-1.4-9.3-1.6-14.1-0.8
		c-2.4,0.4-4.9,0.8-6.9,2c-19.7,11.9-27.8,37-19.2,58.3c0.2,0.4,0.4,0.9,0.8,1.5c0.1-29.3,16.2-47.6,40.2-60.8
		C-82.8,126.3-83,126.2-83.3,126.1z M-86.5,195.1c-0.9,3.5-1.8,7-2.6,10.5c-0.3,1.3,0.2,2.2,1.5,2.7c2.7,1.1,5.4,2.6,8.2,3.5
		c6.2,2,12.5,3.6,18.8,0.2c2.7-1.5,5.5-2.8,8.3-4.2c-13-1.6-22.7-9-32.7-16.4C-85.5,192.8-86.1,193.9-86.5,195.1z M-45.2,142.3
		c3.8,7,6.6,14.4,8.3,22.1c0.1,0.5,0.4,1.3,0.8,1.4c1.6,0.3,3.2,0.4,4.8,0.6c-0.1-19.4-14-37.8-31.5-43.3
		C-55.1,127.8-49.5,134.4-45.2,142.3z M-74.8,215c-4.1-1.5-8.2-2.7-12.2-4.5c-2.3-1-4.3-1.3-6.8-1.2c-2.8,0.1-5.5-0.5-8.3-0.8
		c-0.5-0.1-1.1-0.3-1.6-0.5c-0.5-0.1-0.9-0.3-1.4-0.4c9.2,6.3,19.5,8.6,31,7.8C-74.6,215.2-74.7,215.1-74.8,215z"/>
</g>
</svg>
