<?xml version="1.0" encoding="utf-8"?>
<!-- Generator: Adobe Illustrator 19.1.0, SVG Export Plug-In . SVG Version: 6.00 Build 0)  -->
<!DOCTYPE svg PUBLIC "-//W3C//DTD SVG 1.1//EN" "http://www.w3.org/Graphics/SVG/1.1/DTD/svg11.dtd">
<svg version="1.1" id="Layer_1" xmlns="http://www.w3.org/2000/svg" xmlns:xlink="http://www.w3.org/1999/xlink" x="0px" y="0px"
	 viewBox="-129 133.3 100 94.7" style="enable-background:new -129 133.3 100 94.7;" xml:space="preserve">
<g>
	<path d="M-50.3,208.4v-56.1c0-8.4-6.6-15.4-14.5-15.4h-28.9c-8,0-14.5,6.9-14.5,15.4v56.1c0,8.4,6.6,15.4,14.5,15.4h28.9
		C-56.7,223.8-50.3,216.9-50.3,208.4z M-86.1,180.4c0-3.8,3.1-6.8,6.8-6.8c3.8,0,6.8,3.1,6.8,6.8c0,3.8-3.1,6.8-6.8,6.8
		C-83,187.2-86.1,184.2-86.1,180.4z M-70.1,179.2c-0.5-4.6-4.4-8.1-9.2-8.1c-4.7,0-8.6,3.5-9.2,8.1h-17.5V169h53.3v10.2H-70.1z
		 M-88.3,181.6c0.6,4.5,4.5,8,9.1,8c4.7,0,8.5-3.5,9.1-8h17.6v10.2h-53.3v-10.2H-88.3z M-93.7,139.3h28.9c5.1,0,9.4,3.3,11.3,8
		h-51.4C-103.1,142.6-98.8,139.3-93.7,139.3z M-105.6,149.7h18.8c0.2,1.4,1.4,2.6,3,2.6h9.3c1.5,0,2.8-1.2,3-2.6h18.8
		c0.2,0.8,0.3,1.7,0.3,2.6v14.4h-53.3v-14.4C-105.9,151.4-105.8,150.5-105.6,149.7z M-105.9,194.1h53.3v14.3c0,0.5,0,1.1-0.1,1.7
		h-18.9c-0.1-1.6-1.3-2.9-3-2.9h-9.3c-1.6,0-2.9,1.3-3,2.9h-18.9c-0.1-0.5-0.1-1.1-0.1-1.7C-105.9,208.4-105.9,194.1-105.9,194.1z
		 M-93.7,221.4c-5.4,0-10-3.8-11.6-9h52.1c-1.6,5.2-6.2,9-11.6,9H-93.7z"/>
	<path d="M-71.1,157.8c0,3.6,2.9,6.5,6.5,6.5c3.6,0,6.5-2.9,6.5-6.5c0-3.6-2.9-6.5-6.5-6.5C-68.2,151.3-71.1,154.2-71.1,157.8z
		 M-60.6,157.8c0,2.2-1.8,4-4,4c-2.2,0-4-1.8-4-4s1.8-4,4-4C-62.4,153.6-60.6,155.5-60.6,157.8z"/>
	<path d="M-89.4,158.2c0-3.6-2.9-6.5-6.5-6.5s-6.5,2.9-6.5,6.5c0,3.6,2.9,6.5,6.5,6.5S-89.4,161.8-89.4,158.2z M-99.9,158.2
		c0-2.2,1.8-4,4-4s4,1.8,4,4s-1.8,4-4,4S-99.9,160.5-99.9,158.2z"/>
	<circle cx="-95.9" cy="158.2" r="1"/>
	<circle cx="-64.7" cy="157.8" r="1"/>
	<circle cx="-95.4" cy="202" r="1"/>
	<circle cx="-79.3" cy="180.4" r="1.4"/>
	<circle cx="-64.3" cy="202" r="1"/>
	<path d="M-70.7,202c0,3.6,2.9,6.5,6.5,6.5s6.5-2.9,6.5-6.5c0-3.6-2.9-6.5-6.5-6.5S-70.7,198.4-70.7,202z M-60.2,202
		c0,2.2-1.8,4-4,4s-4-1.8-4-4s1.8-4,4-4C-62,197.9-60.2,199.8-60.2,202z"/>
	<path d="M-89,202c0-3.6-2.9-6.5-6.5-6.5s-6.5,2.9-6.5,6.5c0,3.6,2.9,6.5,6.5,6.5C-91.9,208.4-89,205.5-89,202z M-99.5,202
		c0-2.2,1.8-4,4-4s4,1.8,4,4s-1.8,4-4,4S-99.5,204.3-99.5,202z"/>
</g>
</svg>
