<?xml version="1.0" encoding="utf-8"?>
<!-- Generator: Adobe Illustrator 19.1.0, SVG Export Plug-In . SVG Version: 6.00 Build 0)  -->
<!DOCTYPE svg PUBLIC "-//W3C//DTD SVG 1.1//EN" "http://www.w3.org/Graphics/SVG/1.1/DTD/svg11.dtd">
<svg version="1.1" id="Layer_1" xmlns="http://www.w3.org/2000/svg" xmlns:xlink="http://www.w3.org/1999/xlink" x="0px" y="0px"
	 viewBox="-129 120.3 100 94.7" style="enable-background:new -129 120.3 100 94.7;" xml:space="preserve">
<path d="M-36.2,167.2l-1.1-3.1l-1.5-2.9l-1.9-2.9l-2.7-2.8l-3.1-2.1l-3.2-1.4l-4.1,1h-5.7l-1.7-3.4l-1.9-2.9l-2.7-2.8l-3.1-2.1
	l-3.2-1.3l-4.1,1h-5.7l-1.7-3.5l-1.9-2.9l-2.7-2.8l-3.1-2.1l-3.2-1.4l-4.1,1h-5.7l-4.1-1l-3.2,1.4l-3.1,2.1l-2.7,2.8l-1.9,2.9
	l-1.5,2.9l-1.1,3.1h-1.7v12.3h2.3v10.8l1.1,4.7l2.1,3.7l2.4,2.8l2.6,2.2l4.1,2.3l4.3,1h7.1l1.9,3.2l2.4,2.8l2.6,2.2l4.1,2.3l4.3,1
	h7.1l1.8,3.2l2.4,2.8l2.6,2.2l4.1,2.3l4.3,1h6.5l4.3-1l4.1-2.3l2.6-2.2l2.4-2.8l2.1-3.7l1.1-4.7v-10.7h2.3v-12.4H-36.2z
	 M-59.9,156.4h6.5l3.4-0.8l1.9,0.8l2.6,1.7l2.3,2.3l1.6,2.5l1.3,2.5l0.7,1.8h-33.9l0.7-1.8l1.3-2.5l1.6-2.5l2.3-2.3l2.6-1.7l1.9-0.8
	L-59.9,156.4z M-82.3,144.9h6.5l3.4-0.9l1.9,0.8l2.6,1.7l2.3,2.3l2,3.3l-3.2,1.3l-3.3,2.3H-96l0.7-1.9l1.3-2.5l1.6-2.5l2.3-2.3
	l2.6-1.7l1.9-0.8L-82.3,144.9z M-117.7,142.3l1.3-2.5l1.6-2.5l2.3-2.3l2.6-1.7l1.9-0.8l3.4,0.8h6.5l3.4-0.8l1.9,0.8l2.6,1.7l2.3,2.3
	l2,3.3l-3.2,1.3l-3.2,2.2h-26L-117.7,142.3z M-115.8,173l-1.3-2.3l-0.4-1.9h1.7V173z M-115.8,167.8h-2l-0.2-1v-4.9h2.2V167.8z
	 M-115.8,160.9h-2.2v-4.5h2.2V160.9z M-120.3,153.1v-1.2h6.1v-1h-6.1v-1.2h6.1v-1h-6.1v-1.3h24.8l-1.5,2.2l-1.7,3.4
	C-98.6,153.1-120.3,153.1-120.3,153.1z M-98.8,168.8v5.8h-2.2v-5.8H-98.8z M-108.8,179.2l-2.3-1.3l-2.5-2.3h4.9V179.2z
	 M-108.8,174.6h-6v-5.8h6V174.6z M-108.8,167.8h-6v-6h6V167.8z M-108.8,160.9h-6v-4.5h6V160.9z M-102,180.6h-2.3l-3.5-0.8l-0.1-0.1
	v-4.1h5.8C-102,175.6-102,180.6-102,180.6z M-102,174.6h-5.8v-5.8h5.8V174.6z M-102,167.8h-5.8v-6h5.8V167.8z M-102,160.9h-5.8v-4.5
	h5.8V160.9z M-98.5,180.6h-2.5v-5h2.2v3.1L-98.5,180.6L-98.5,180.6z M-93.4,184.6l-1.3-2.4l-0.4-1.9h1.7V184.6z M-93.4,179.3h-2
	l-0.2-0.9v-4.9h2.2V179.3z M-93.4,172.5h-2.2V168h2.2V172.5z M-86.4,190.8l-2.3-1.3l-2.6-2.2h4.9L-86.4,190.8L-86.4,190.8z
	 M-86.4,186.3l-6,0v-6h6V186.3z M-86.4,179.3h-6v-5.8h6V179.3z M-86.4,172.5h-6V168h6V172.5z M-79.6,192.2h-2.3l-3.5-0.9v-4.1h5.8
	V192.2z M-79.6,186.3h-5.8v-6h5.8V186.3z M-79.6,179.3h-5.8v-5.8h5.8V179.3z M-79.6,172.5h-5.8V168h5.8V172.5z M-78.6,192.2v-5h2.2
	v3l0.4,2C-76,192.2-78.6,192.2-78.6,192.2z M-78.6,186.3v-6h2.2v6H-78.6z M-76.2,164.7H-98v-1.3h6.3v-1H-98v-1h6.3v-1H-98V159h24.9
	l-1.4,2.2l-1.5,2.9L-76.2,164.7z M-70.9,196.1l-1.4-2.3l-0.4-1.9h1.8L-70.9,196.1L-70.9,196.1z M-70.9,190.9h-2l-0.1-1v-5h2.2
	C-70.9,184.9-70.9,190.9-70.9,190.9z M-70.9,183.9h-2.2v-4.3h2.2V183.9z M-64,202.3l-2.4-1.3l-2.6-2.3h4.9V202.3z M-64,197.7h-6
	l0-5.8h6L-64,197.7L-64,197.7z M-64,190.9h-6v-6h6V190.9z M-64,183.9h-6v-4.3h6V183.9z M-57.2,203.7h-2.3l-3.5-0.8v-4.2h5.8
	L-57.2,203.7L-57.2,203.7z M-57.2,197.7H-63v-5.8h5.8V197.7z M-57.2,190.9H-63v-6h5.8V190.9z M-57.2,183.9H-63v-4.3h5.8V183.9z
	 M-50.4,202.9l-3.4,0.8h-2.4v-5h5.8V202.9z M-50.4,197.7h-5.8v-5.8h5.8V197.7z M-50.4,190.9h-5.8v-6h5.8V190.9z M-50.4,183.9h-5.8
	v-4.3h5.8V183.9z M-46.9,201l-2.5,1.4v-3.7h5L-46.9,201z M-43.4,197.7h-6v-5.8h6V197.7z M-43.4,190.9h-6v-6h6V190.9z M-43.4,183.9
	h-6v-4.3h6V183.9z M-40.9,193.8l-1.5,2.6v-4.5h1.9L-40.9,193.8z M-40.1,189.9l-0.2,1h-2.1v-6h2.3L-40.1,189.9L-40.1,189.9z
	 M-40.1,183.9h-2.3v-4.3h2.3V183.9z M-37.7,171.8h-6.3v1h6.3v1.2h-6.3v1h6.3v1.3h-37.8V175h6.3v-1h-6.3v-1.2h6.3v-1h-6.3v-1.3h37.8
	V171.8z"/>
</svg>
