<?xml version="1.0" encoding="utf-8"?>
<!-- Generator: Adobe Illustrator 19.1.0, SVG Export Plug-In . SVG Version: 6.00 Build 0)  -->
<!DOCTYPE svg PUBLIC "-//W3C//DTD SVG 1.1//EN" "http://www.w3.org/Graphics/SVG/1.1/DTD/svg11.dtd">
<svg version="1.1" id="Layer_1" xmlns="http://www.w3.org/2000/svg" xmlns:xlink="http://www.w3.org/1999/xlink" x="0px" y="0px"
	 viewBox="-129 137.5 100 67.7" style="enable-background:new -129 137.5 100 67.7;" xml:space="preserve">
<polygon points="-123,162.5 -116,162.5 -116,177.5 -95,177.5 -95,144.5 -105,144.5 -105,166.5 -112,166.5 -112,157.5 -119.1,157.5
	-120.8,151.5 -123,151.5 "/>
<polygon points="-121.5,179.5 -123.5,194.5 -102.6,194.5 -111,179.5 "/>
<path d="M-91.8,181.1c-5.2,0-9.4,4.2-9.4,9.4s4.2,9.4,9.4,9.4c5.2,0,9.4-4.2,9.4-9.4S-86.6,181.1-91.8,181.1z M-91.8,194.3
	c-2.1,0-3.8-1.7-3.8-3.8s1.7-3.8,3.8-3.8c2.1,0,3.8,1.7,3.8,3.8S-89.7,194.3-91.8,194.3z"/>
<path d="M-51.3,181.1c-5.2,0-9.4,4.2-9.4,9.4s4.2,9.4,9.4,9.4c5.2,0,9.4-4.2,9.4-9.4S-46.2,181.1-51.3,181.1z M-51.3,194.3
	c-2.1,0-3.8-1.7-3.8-3.8s1.7-3.8,3.8-3.8c2.1,0,3.8,1.7,3.8,3.8S-49.2,194.3-51.3,194.3z"/>
<path d="M-91,177.3c6,0.2,11,4.2,11.9,10.2h15c0.9-6,6.1-10.7,12.4-10.7s11.5,4.7,12.4,10.7h2.3v-16h-54V177.3z"/>
<g>
	<path d="M-37,150.8l-55-6.2v23.9h58.4L-37,150.8z M-71.9,159.9c-0.4,0.1-0.8,0.1-1.3,0.2v3.2c0,0,0,0.1,0,0.2c0,0.1,0,0.1,0,0.2
		c0,0.2-0.1,0.4-0.3,0.5s-0.3,0.2-0.5,0.2c-0.5-0.1-1.2-0.5-1.8-1.3c-0.1-0.1-0.1-0.2-0.1-0.5c0,0,0-0.1,0.1-0.2
		c0.1-0.1,0.1-0.1,0.1-0.2v-1.8c-0.7,0.2-1.3,0.4-1.7,0.5c-0.7,0.2-1.1,0.3-1.4,0.3c-0.2,0-0.6-0.1-1-0.5c-0.4-0.3-0.7-0.5-0.8-0.7
		c0-0.1-0.1-0.1-0.1-0.2c0-0.1,0.1-0.3,0.3-0.6c0.1-0.1,0.2-0.2,0.4-0.5c0,0,0.7-1.1,2.1-3.3c1.4-2.2,2.1-3.3,2.2-3.3
		c0.3-0.2,0.5-0.3,0.7-0.3c0.2,0,0.6,0.2,1.1,0.6c0.5,0.4,0.8,0.7,0.9,0.8c0,0.1-0.1,0.3-0.3,0.6v3.7c0.3-0.1,0.5-0.1,0.5-0.1
		c0.1,0,0.2,0,0.3,0.1c0.2,0.1,0.4,0.4,0.7,0.9c0.3,0.5,0.4,0.7,0.4,0.8C-71.3,159.6-71.5,159.8-71.9,159.9z M-64.3,161.2
		c-0.5,1.9-1.3,2.8-2.3,2.8c-0.2,0-0.4,0-0.6-0.1c-0.4-0.1-0.6-0.2-0.6-0.2c-0.2-0.1-0.6-0.2-1.2-0.4c-0.5-0.2-0.8-0.8-1.1-1.9
		c-0.3-1.1-0.4-2.3-0.4-3.6c0-1.3,0.1-2.5,0.4-3.4c0.3-1.1,0.8-1.7,1.3-1.9c0,0,0.1,0,0.1,0c0.1,0,0.1,0,0.2,0.1
		c0.1,0.1,0.2,0.1,0.2,0.1c0.3-0.1,0.5-0.1,0.8-0.1c0.3,0,0.7,0.1,1.2,0.2c0.7,0.2,1.1,0.3,1.1,0.3c0.4,0.1,0.8,0.6,1.1,1.4
		c0.2,0.8,0.4,1.8,0.4,2.9C-63.8,158.5-64,159.8-64.3,161.2z M-54.3,159.9c-0.4,0.1-0.8,0.1-1.3,0.2v3.2c0,0,0,0.1,0,0.2
		c0,0.1,0,0.1,0,0.2c0,0.2-0.1,0.4-0.3,0.5s-0.3,0.2-0.5,0.2c-0.5-0.1-1.2-0.5-1.8-1.3c-0.1-0.1-0.1-0.2-0.1-0.5c0,0,0-0.1,0.1-0.2
		c0.1-0.1,0.1-0.1,0.1-0.2v-1.8c-0.7,0.2-1.3,0.4-1.7,0.5c-0.7,0.2-1.1,0.3-1.4,0.3c-0.2,0-0.6-0.1-1-0.5c-0.4-0.3-0.7-0.5-0.8-0.7
		c0-0.1-0.1-0.1-0.1-0.2c0-0.1,0.1-0.3,0.3-0.6c0.1-0.1,0.2-0.2,0.4-0.5c0,0,0.7-1.1,2.1-3.3c1.4-2.2,2.1-3.3,2.2-3.3
		c0.3-0.2,0.5-0.3,0.7-0.3c0.2,0,0.6,0.2,1.1,0.6c0.5,0.4,0.8,0.7,0.9,0.8c0,0.1-0.1,0.3-0.3,0.6v3.7c0.3-0.1,0.5-0.1,0.5-0.1
		c0.1,0,0.2,0,0.3,0.1c0.2,0.1,0.4,0.4,0.7,0.9c0.3,0.5,0.4,0.7,0.4,0.8C-53.7,159.6-53.9,159.8-54.3,159.9z"/>
	<path d="M-66.9,153.7c-0.4,0-0.8,0.5-1,1.5c-0.2,0.8-0.3,1.7-0.3,2.7c0,0.8,0.1,1.7,0.3,2.7c0.2,1,0.4,1.4,0.6,1.4
		c0.4,0,0.6-0.5,0.9-1.6c0.2-1,0.3-2.1,0.3-3.4c0-0.9-0.1-1.7-0.2-2.3C-66.5,154-66.6,153.7-66.9,153.7z"/>
	<polygon points="-58,158.3 -58,156.4 -59.4,158.8 	"/>
	<polygon points="-75.5,158.3 -75.5,156.4 -77,158.8 	"/>
</g>
</svg>
